<svg width="390" height="492" viewBox="0 0 390 492" fill="none" xmlns="http://www.w3.org/2000/svg">
<rect x="-1" width="85.5534" height="85.5534" rx="30" fill="#F7FCFB" fill-opacity="0.3"/>
<mask id="mask0_261_2479" style="mask-type:luminance" maskUnits="userSpaceOnUse" x="24" y="23" width="34" height="39">
<path fill-rule="evenodd" clip-rule="evenodd" d="M24.6953 23.8188H57.0623V61.5019H24.6953V23.8188Z" fill="white"/>
</mask>
<g mask="url(#mask0_261_2479)">
<path fill-rule="evenodd" clip-rule="evenodd" d="M33.3746 26.6659C30.2296 26.6659 27.6178 29.2131 27.5438 32.3544V52.6542C27.4736 55.9055 30.036 58.5837 33.2551 58.6558H48.561C51.7289 58.5248 54.2381 55.8922 54.2153 52.6655V35.8298L45.4178 26.6659H33.3974H33.3746ZM33.3981 61.5029H33.1912C28.4043 61.3947 24.593 57.4126 24.6974 52.6238V32.3203C24.8075 27.6112 28.6966 23.8188 33.3715 23.8188H33.4038H46.0259C46.4131 23.8188 46.7832 23.9764 47.0527 24.2554L56.6664 34.2715C56.9207 34.5353 57.0631 34.8902 57.0631 35.2565V52.6541C57.0973 57.4164 53.3885 61.3074 48.6186 61.501L33.3981 61.5029Z" fill="#F7FCFB"/>
</g>
<path fill-rule="evenodd" clip-rule="evenodd" d="M55.6285 37.0529H50.3993C46.9259 37.0434 44.1016 34.2115 44.1016 30.7419V25.2204C44.1016 24.4346 44.7393 23.7969 45.5251 23.7969C46.3109 23.7969 46.9486 24.4346 46.9486 25.2204V30.7419C46.9486 32.6475 48.4994 34.2001 50.4031 34.2058H55.6285C56.4143 34.2058 57.052 34.8436 57.052 35.6294C57.052 36.4152 56.4143 37.0529 55.6285 37.0529Z" fill="#F7FCFB"/>
<path fill-rule="evenodd" clip-rule="evenodd" d="M45.1711 50.5749H34.9216C34.1358 50.5749 33.498 49.9371 33.498 49.1513C33.498 48.3655 34.1358 47.7278 34.9216 47.7278H45.1711C45.9569 47.7278 46.5946 48.3655 46.5946 49.1513C46.5946 49.9371 45.9569 50.5749 45.1711 50.5749Z" fill="#F7FCFB"/>
<path fill-rule="evenodd" clip-rule="evenodd" d="M41.2895 43.4535H34.9196C34.1338 43.4535 33.4961 42.8158 33.4961 42.03C33.4961 41.2442 34.1338 40.6064 34.9196 40.6064H41.2895C42.0753 40.6064 42.7131 41.2442 42.7131 42.03C42.7131 42.8158 42.0753 43.4535 41.2895 43.4535Z" fill="#F7FCFB"/>
<rect x="100.553" width="85.5534" height="85.5534" rx="30" fill="#F7FCFB" fill-opacity="0.3"/>
<path d="M162.648 42.1126C162.332 41.6856 161.868 41.4696 161.27 41.4696H161.224C160.914 41.4751 160.579 41.4779 160.167 41.4779C159.925 41.4779 159.683 41.4772 159.438 41.4765C159.42 41.4758 159.401 41.4758 159.383 41.4758C159.232 39.8226 158.85 38.2491 158.242 36.7898C157.636 35.3347 156.791 33.9544 155.725 32.6794C155.747 32.6588 155.769 32.6375 155.79 32.6162C156.272 32.143 156.727 31.6953 157.19 31.2325C157.726 30.6947 157.757 29.9204 157.263 29.3915C157.013 29.1254 156.685 28.9803 156.336 28.9803C155.987 28.9803 155.644 29.1281 155.366 29.397C154.97 29.7842 154.547 30.2078 154.071 30.6913C154.015 30.7484 153.959 30.8061 153.906 30.8632C152.624 29.7973 151.244 28.9528 149.794 28.349C148.337 27.7417 146.767 27.3601 145.118 27.2101V27.1709C145.116 26.5499 145.114 25.9626 145.124 25.3698C145.129 25.0927 145.092 24.8534 145.011 24.6402C144.906 24.361 144.727 24.1272 144.48 23.9449L144.28 23.7964H143.353L143.153 23.9449C142.493 24.4325 142.506 25.1381 142.509 25.3698C142.52 25.9606 142.518 26.5644 142.516 27.1476C142.515 27.1613 142.515 27.1758 142.515 27.1895C140.821 27.3903 139.197 27.8249 137.677 28.4865C137.054 28.7582 135.464 29.5167 133.735 30.866C133.688 30.8171 133.641 30.769 133.593 30.7202L133.408 30.5338C133.031 30.1528 132.64 29.7588 132.245 29.3771C131.979 29.1199 131.644 28.9782 131.303 28.9782C130.962 28.9782 130.632 29.1199 130.384 29.3771C129.904 29.8743 129.903 30.6273 130.38 31.1686C130.452 31.2504 130.525 31.3205 130.588 31.3824C130.613 31.4065 130.637 31.4299 130.661 31.4546H130.662L130.664 31.4567C131.071 31.8638 131.478 32.2709 131.892 32.6849C130.831 33.9503 129.989 35.3278 129.384 36.7885C128.781 38.2443 128.4 39.8185 128.247 41.4758C128.229 41.4758 128.212 41.4758 128.194 41.4765C127.949 41.4772 127.707 41.4779 127.466 41.4779C127.054 41.4779 126.718 41.4751 126.411 41.4696H126.362C125.764 41.4696 125.3 41.6863 124.984 42.1133L124.836 42.3135V43.2405L124.984 43.4406C125.3 43.8677 125.764 44.0836 126.362 44.0836H126.409C126.711 44.0781 127.037 44.076 127.438 44.076C127.683 44.076 127.931 44.076 128.18 44.0774C128.203 44.0774 128.226 44.0781 128.249 44.0781C128.4 45.7313 128.782 47.3041 129.389 48.7634C129.994 50.2179 130.838 51.5947 131.9 52.8649C131.89 52.8752 131.879 52.8855 131.868 52.8965C131.368 53.3937 130.895 53.8634 130.416 54.3503C129.899 54.8743 129.879 55.637 130.369 56.1624C130.62 56.4292 130.951 56.575 131.303 56.575C131.655 56.575 131.974 56.4368 132.236 56.1851C132.627 55.811 133.016 55.4231 133.392 55.0311C133.503 54.9149 133.612 54.7959 133.717 54.6777C135.002 55.7484 136.385 56.5957 137.836 57.2008C139.291 57.8074 140.862 58.1911 142.515 58.3438C142.515 58.3624 142.515 58.3802 142.516 58.3988C142.518 59.0143 142.52 59.5954 142.509 60.1827C142.499 60.8051 142.716 61.2844 143.152 61.609L143.353 61.7576H144.281L144.483 61.6076C144.918 61.2824 145.133 60.8037 145.123 60.1841C145.113 59.6009 145.115 59.0239 145.117 58.4139C145.117 58.3906 145.117 58.3672 145.117 58.3438C146.769 58.1946 148.342 57.8115 149.803 57.2036C151.256 56.5977 152.634 55.7539 153.909 54.69C153.938 54.7203 153.968 54.7506 153.999 54.7808C154.465 55.2526 154.905 55.6982 155.36 56.15C155.637 56.4244 155.981 56.575 156.332 56.575C156.65 56.575 156.959 56.4506 157.201 56.2243C157.457 55.9836 157.602 55.6679 157.611 55.3337C157.621 54.9768 157.477 54.622 157.204 54.3338C156.972 54.0897 156.733 53.8552 156.503 53.6282L156.407 53.534C156.181 53.3119 155.952 53.0884 155.726 52.8697C156.794 51.5892 157.639 50.2069 158.245 48.7517C158.85 47.2972 159.231 45.7279 159.382 44.0781C159.401 44.0781 159.419 44.0781 159.438 44.0774C159.682 44.0767 159.925 44.076 160.166 44.076C160.578 44.076 160.913 44.0788 161.221 44.0843H161.268C161.865 44.0843 162.327 43.869 162.646 43.444L162.796 43.2425V42.3135L162.647 42.1126H162.648ZM156.903 45.6681C156.288 48.4505 154.826 50.9262 152.676 52.8291C150.524 54.7334 147.897 55.8722 145.08 56.1225C144.65 56.161 144.218 56.1803 143.797 56.1803C141.19 56.1803 138.719 55.4376 136.452 53.9721C131.892 51.0253 129.527 45.2836 130.702 40.009C131.107 38.1907 131.809 36.5519 132.79 35.1373C133.342 34.3409 134.31 33.1595 135.788 32.0543C136.891 31.2298 138.142 30.5599 139.406 30.1157C140.577 29.7051 141.798 29.4603 143.037 29.3888C143.289 29.3743 143.545 29.3668 143.798 29.3668C144.688 29.3668 145.596 29.4589 146.498 29.6419C150.031 30.3571 153.065 32.425 155.042 35.4633C157.023 38.5098 157.685 42.134 156.903 45.6681Z" fill="#F7FCFB"/>
<path d="M144.655 44.9975H144.618C144.376 44.9934 144.127 44.99 143.879 44.99C143.702 44.99 143.539 44.9914 143.387 44.9955C143.229 44.6585 143.063 44.327 142.901 44.0045C142.826 43.8546 142.75 43.704 142.676 43.5534C142.648 43.4977 142.619 43.4399 142.594 43.3876C142.632 43.3464 142.674 43.3003 142.715 43.257C142.9 43.0569 143.087 42.8574 143.273 42.658C143.62 42.2873 143.979 41.9036 144.329 41.5219C144.909 40.8878 144.917 40.0268 144.348 39.4746C144.074 39.2085 143.744 39.0682 143.393 39.0682C143.115 39.0682 142.694 39.1603 142.266 39.5998C142.183 39.685 142.105 39.7696 142.031 39.8522C141.989 39.8975 141.947 39.9436 141.904 39.9897C141.537 40.3817 141.171 40.773 140.846 41.121L140.558 41.0268L139.715 40.7524C139.655 40.5007 139.589 40.2235 139.516 39.9464C139.328 39.2422 138.785 38.7876 138.131 38.7876C138.017 38.7876 137.902 38.802 137.789 38.8309C137.01 39.0276 136.595 39.7573 136.78 40.6045C136.853 40.9387 136.931 41.2716 136.996 41.5501C136.961 41.5886 136.927 41.6271 136.893 41.6649C136.616 41.9751 136.371 42.2474 136.125 42.5101C135.232 42.4414 134.339 42.3575 133.566 42.2832C133.488 42.2756 133.411 42.2722 133.337 42.2722C132.509 42.2722 131.925 42.7639 131.85 43.5245C131.806 43.9605 131.941 44.358 132.227 44.6434C132.482 44.8965 132.835 45.0478 133.278 45.0925C133.396 45.1048 133.515 45.1172 133.633 45.1296C134.243 45.1929 134.874 45.2582 135.508 45.2829C135.807 45.2946 135.869 45.3297 135.878 45.3373C135.878 45.3373 135.911 45.3689 135.946 45.4886C136.047 45.8324 136.195 46.1453 136.351 46.4452C136.312 46.4582 136.273 46.4713 136.233 46.4844C136.128 46.5187 136.019 46.5545 135.91 46.5923C135.255 46.8206 134.883 47.3234 134.888 47.9719C134.894 48.7572 135.5 49.3493 136.299 49.3493C136.464 49.3493 136.631 49.3232 136.795 49.2723C137.1 49.1781 137.402 49.0742 137.695 48.9718C138.11 49.5233 138.661 49.9002 139.341 50.0975C139.343 50.1278 139.345 50.1574 139.347 50.1876C139.385 50.7055 139.421 51.1951 139.461 51.6965C139.54 52.7081 140.227 53.1613 140.872 53.1613C140.92 53.1613 140.968 53.1592 141.016 53.1544C141.835 53.0787 142.34 52.4137 142.275 51.5005C142.263 51.3347 142.251 51.169 142.24 51.0033C142.209 50.5425 142.176 50.068 142.132 49.5948C142.916 49.2042 143.454 48.6087 143.738 47.8185C143.852 47.8192 143.964 47.8192 144.075 47.8192C144.301 47.8192 144.486 47.8178 144.659 47.8151C145.134 47.8061 145.532 47.6466 145.811 47.3522C146.058 47.0902 146.187 46.7374 146.173 46.3592C146.143 45.5704 145.519 45.0106 144.655 44.9975ZM141.221 47.7332C141.02 47.8412 140.816 47.9478 140.606 48.0379C140.437 48.1108 140.271 48.1472 140.115 48.1472C139.757 48.1472 139.448 47.956 139.256 47.5812C138.745 46.5889 138.26 45.5835 137.773 44.5801C137.706 44.4419 137.688 44.281 137.668 44.2074C137.684 43.6318 137.972 43.3505 138.391 43.149C138.723 42.9895 139.049 42.7928 139.394 42.7928C139.573 42.7928 139.757 42.8457 139.948 42.9853C140.091 43.0892 140.212 43.2515 140.293 43.4117C140.772 44.3559 141.243 45.3036 141.704 46.2567C142.011 46.8901 141.835 47.4052 141.221 47.7332Z" fill="#F7FCFB"/>
<path d="M154.936 45.5882C154.836 44.9425 154.527 44.3187 154.016 43.7294C154.289 42.9812 154.36 42.2804 154.228 41.6415C154.06 40.8259 153.563 40.1471 152.788 39.6774C152.283 39.3721 151.709 39.2112 151.125 39.2112C150.134 39.2112 149.213 39.6623 148.597 40.449C148.044 41.1567 147.818 41.9599 147.944 42.7728C148.043 43.4096 148.35 44.0368 148.861 44.642C148.585 45.3833 148.513 46.0841 148.646 46.7305C148.816 47.5523 149.316 48.2352 150.092 48.7056C150.594 49.0103 151.167 49.1705 151.751 49.1705C152.744 49.1705 153.666 48.7194 154.283 47.9319C154.838 47.2222 155.065 46.4121 154.936 45.5882ZM149.995 42.3829C150.01 41.7667 150.513 41.2743 151.129 41.2743H151.129C151.759 41.275 152.266 41.7935 152.26 42.431C152.255 43.052 151.74 43.5643 151.13 43.5643C151.121 43.5643 151.112 43.5643 151.103 43.5637C150.469 43.5478 149.98 43.0266 149.995 42.3829ZM151.752 47.1067H151.746C151.122 47.1039 150.608 46.5751 150.615 45.9445C150.622 45.3352 151.124 44.8297 151.737 44.8153C151.746 44.8146 151.755 44.8146 151.763 44.8146C152.372 44.8146 152.885 45.3324 152.887 45.9569C152.89 46.5895 152.378 47.1067 151.752 47.1067Z" fill="#F7FCFB"/>
<path d="M146.836 32.177C146.184 31.5181 145.323 31.155 144.412 31.155C142.538 31.155 141.005 32.6783 140.992 34.5509C140.987 35.4738 141.337 36.3389 141.98 36.9867C142.623 37.6339 143.484 37.9915 144.405 37.9929H144.41C146.279 37.9929 147.815 36.4758 147.834 34.6121C147.843 33.7009 147.488 32.8365 146.836 32.177ZM144.415 35.9332H144.411C143.665 35.9332 143.042 35.3074 143.05 34.566C143.058 33.8364 143.667 33.2367 144.403 33.2333H144.409C145.14 33.2333 145.748 33.824 145.767 34.5543C145.786 35.2957 145.163 35.9304 144.415 35.9332Z" fill="#F7FCFB"/>
<rect x="202.107" width="85.5534" height="85.5534" rx="30" fill="#F7FCFB" fill-opacity="0.3"/>
<path fill-rule="evenodd" clip-rule="evenodd" d="M244.882 38.3C242.358 38.3 240.306 40.3537 240.306 42.8781C240.306 45.4006 242.358 47.4524 244.882 47.4524C247.407 47.4524 249.46 45.4006 249.46 42.8781C249.46 40.3537 247.407 38.3 244.882 38.3ZM244.882 50.2995C240.788 50.2995 237.459 46.9703 237.459 42.8781C237.459 38.784 240.788 35.4529 244.882 35.4529C248.976 35.4529 252.307 38.784 252.307 42.8781C252.307 46.9703 248.976 50.2995 244.882 50.2995Z" fill="#F7FCFB"/>
<mask id="mask1_261_2479" style="mask-type:luminance" maskUnits="userSpaceOnUse" x="225" y="27" width="39" height="32">
<path fill-rule="evenodd" clip-rule="evenodd" d="M225.902 27.5928H263.863V58.161H225.902V27.5928Z" fill="white"/>
</mask>
<g mask="url(#mask1_261_2479)">
<path fill-rule="evenodd" clip-rule="evenodd" d="M228.883 42.8766C232.413 50.6757 238.36 55.3127 244.884 55.3146C251.407 55.3127 257.354 50.6757 260.884 42.8766C257.354 35.0794 251.407 30.4424 244.884 30.4405C238.362 30.4424 232.413 35.0794 228.883 42.8766ZM244.886 58.1617H244.879H244.877C237.026 58.156 229.977 52.6535 226.018 43.4385C225.864 43.0797 225.864 42.6735 226.018 42.3148C229.977 33.1016 237.028 27.5992 244.877 27.5935C244.881 27.5916 244.881 27.5916 244.882 27.5935C244.886 27.5916 244.886 27.5916 244.888 27.5935C252.739 27.5992 259.788 33.1016 263.747 42.3148C263.903 42.6735 263.903 43.0797 263.747 43.4385C259.79 52.6535 252.739 58.156 244.888 58.1617H244.886Z" fill="#F7FCFB"/>
</g>
<rect x="303.66" width="85.5534" height="85.5534" rx="30" fill="#F7FCFB" fill-opacity="0.3"/>
<path d="M341.396 23.7961C341.816 23.7961 342.236 23.7961 342.657 23.7961C342.736 23.8212 342.813 23.8563 342.894 23.8706C343.965 24.059 344.905 24.5138 345.716 25.2401C345.971 25.4693 346.245 25.6792 346.523 25.9084C346.559 25.8682 346.663 25.7515 346.769 25.6355C347.445 24.887 348.266 24.3584 349.228 24.0554C349.553 23.953 349.889 23.8814 350.219 23.7961C350.639 23.7961 351.059 23.7961 351.479 23.7961C351.549 23.8176 351.618 23.8477 351.689 23.8606C354.041 24.2753 355.561 25.6376 356.263 27.9081C356.343 28.1674 356.432 28.2505 356.703 28.2641C359.747 28.4152 362.088 30.9035 362.002 33.9447C361.981 34.6824 361.766 35.4144 361.631 36.2073C361.65 36.2202 361.75 36.2897 361.852 36.3556C363.455 37.4006 364.556 38.8302 365.08 40.6717C365.254 41.2819 365.309 41.9258 365.418 42.554V42.9988C365.398 43.1184 365.369 43.2366 365.359 43.3569C365.21 45.2284 364.473 46.835 363.141 48.1493C362.663 48.622 362.103 49.0117 361.558 49.4572C361.568 49.4901 361.588 49.5589 361.613 49.6262C363.012 53.3278 360.591 57.0573 356.628 57.2915C356.385 57.3058 356.333 57.4075 356.277 57.6109C355.815 59.259 354.818 60.4845 353.27 61.2087C352.71 61.4708 352.078 61.5782 351.479 61.7566H350.292C350.223 61.7344 350.154 61.7022 350.083 61.6921C349.111 61.5546 348.235 61.1807 347.473 60.5662C347.103 60.2682 346.777 59.9158 346.408 59.5649C345.825 60.3026 345.118 60.9121 344.234 61.2652C343.703 61.4773 343.134 61.5962 342.581 61.7566H341.395C341.326 61.7344 341.258 61.7043 341.186 61.6921C338.835 61.276 337.315 59.9144 336.611 57.6453C336.531 57.386 336.442 57.3022 336.172 57.2886C333.112 57.1325 330.778 54.6357 330.874 51.5715C330.897 50.846 331.112 50.1269 331.249 49.3476C331.247 49.3462 331.171 49.2867 331.089 49.2351C329.622 48.3076 328.538 47.0499 327.978 45.4054C327.716 44.6332 327.625 43.8031 327.457 42.9995C327.457 42.8512 327.457 42.703 327.457 42.5547C327.478 42.4222 327.507 42.2904 327.518 42.1572C327.665 40.3823 328.344 38.8366 329.582 37.5632C330.101 37.0295 330.715 36.5869 331.313 36.0805C331.307 36.0626 331.286 35.9939 331.261 35.9265C329.857 32.2343 332.29 28.4861 336.247 28.2612C336.49 28.2476 336.541 28.1459 336.598 27.9418C337.03 26.3911 337.936 25.19 339.378 24.468C340.005 24.1536 340.721 24.0146 341.396 23.7961ZM363.047 41.7174C362.854 40.734 362.433 39.911 361.795 39.2012C360.623 37.8962 359.125 37.3497 357.393 37.3848V35.1344C358.093 35.1938 358.754 35.2504 359.44 35.3084C359.457 35.2805 359.491 35.231 359.516 35.1766C360.404 33.2492 359.155 30.8662 357.055 30.5518C356.389 30.4522 355.702 30.4938 355.023 30.4752C354.77 30.468 354.516 30.4737 354.231 30.4737C354.231 30.0082 354.244 29.6021 354.229 29.1967C354.168 27.555 352.862 26.192 351.204 26.0308C349.56 25.8711 347.982 27.0142 347.637 28.6258C347.581 28.8829 347.57 29.1487 347.538 29.4151C350.144 29.5039 351.335 31.4185 351.373 32.982C351.393 33.8516 351.157 34.6423 350.626 35.3335C349.859 36.3305 348.822 36.7903 347.581 36.8011V41.7303H352.001C352.001 41.8836 352.001 42.0046 352.001 42.1257C352.001 42.7803 351.996 43.435 352.004 44.0896C352.014 44.9484 352.647 45.593 353.464 45.5887C354.268 45.5844 354.886 44.9505 354.9 44.1089C354.908 43.6276 354.902 43.1456 354.902 42.6636C354.902 42.3592 354.902 42.0547 354.902 41.7152H363.048L363.047 41.7174ZM345.325 34.5657C345.504 34.5657 345.638 34.5657 345.771 34.5657C346.45 34.5635 347.13 34.5793 347.809 34.5528C348.52 34.5255 349.062 33.9762 349.144 33.2499C349.22 32.5781 348.773 31.9091 348.104 31.7322C347.893 31.6763 347.666 31.667 347.445 31.6641C346.746 31.6563 346.048 31.6613 345.322 31.6613C345.322 30.8225 345.34 30.0339 345.318 29.2461C345.27 27.4834 343.8 26.048 342.038 26.023C340.199 25.9965 338.699 27.4304 338.643 29.2747C338.631 29.6658 338.641 30.0569 338.641 30.4773C337.872 30.4773 337.157 30.4687 336.443 30.4795C335.427 30.4952 334.571 30.8755 333.895 31.6405C332.996 32.659 332.805 34.3028 333.451 35.307C334.13 35.2511 334.799 35.1967 335.496 35.1394V37.3905C334.163 37.3605 332.938 37.6656 331.873 38.4757C330.8 39.2907 330.119 40.3529 329.826 41.6938H335.721C335.735 39.2012 337.662 37.8575 339.344 37.8411C340.212 37.8325 341 38.0839 341.684 38.6253C342.67 39.4061 343.099 40.4568 343.114 41.693H345.325V34.5678V34.5657ZM329.855 43.9478C330.047 44.8803 330.461 45.6553 331.059 46.3279C332.232 47.6472 333.74 48.2059 335.495 48.1694V50.417C334.798 50.3596 334.128 50.3045 333.433 50.2472C333.417 50.2758 333.383 50.326 333.357 50.3804C332.471 52.305 333.724 54.6915 335.822 55.0009C336.525 55.1048 337.25 55.059 337.965 55.0783C338.181 55.084 338.398 55.079 338.643 55.079C338.643 55.5331 338.631 55.9278 338.645 56.3203C338.701 57.9777 339.961 59.3206 341.636 59.5183C343.193 59.7024 344.737 58.6731 345.176 57.1382C345.269 56.8173 345.294 56.4771 345.352 56.1369C342.784 56.0524 341.546 54.1858 341.503 52.57C341.48 51.7005 341.717 50.909 342.25 50.2185C343.017 49.2251 344.051 48.7581 345.299 48.7524V43.9313H340.875C340.875 43.768 340.875 43.6348 340.875 43.5023C340.875 42.8233 340.89 42.1428 340.869 41.4646C340.844 40.6631 340.174 40.0399 339.393 40.0593C338.61 40.0786 337.995 40.6889 337.979 41.4839C337.965 42.1257 337.975 42.7681 337.974 43.4106C337.974 43.5775 337.974 43.7451 337.974 43.9464H329.855V43.9478ZM357.135 43.9664C357.143 44.9992 356.834 45.901 356.133 46.6466C355.429 47.3937 354.556 47.7819 353.535 47.8098C352.665 47.8334 351.88 47.5677 351.196 47.0284C350.209 46.2498 349.775 45.2012 349.762 43.9621H347.545V50.9907C346.723 50.9907 345.948 50.9792 345.172 50.9942C344.347 51.01 343.732 51.6267 343.721 52.4203C343.709 53.2139 344.349 53.8678 345.176 53.8893C345.732 53.9036 346.288 53.8929 346.844 53.8929C347.073 53.8929 347.302 53.8929 347.553 53.8929C347.553 54.7366 347.535 55.5267 347.556 56.3153C347.604 58.0586 349.064 59.4933 350.807 59.5312C352.664 59.5713 354.175 58.136 354.233 56.2708C354.245 55.8812 354.234 55.4901 354.234 55.0761C355.036 55.0761 355.777 55.0962 356.517 55.0726C358.867 54.9959 360.423 52.6531 359.572 50.5007C359.485 50.2801 359.397 50.21 359.144 50.2501C358.645 50.3288 358.138 50.3554 357.633 50.3811C357.545 50.3854 357.375 50.283 357.373 50.2257C357.354 49.551 357.36 48.8756 357.36 48.1629C358.713 48.1959 359.927 47.8907 360.985 47.0928C362.033 46.3014 362.715 45.2736 363.019 43.9678H357.135V43.9664Z" fill="#F7FCFB"/>
<rect x="-1" y="101.553" width="85.5534" height="85.5534" rx="30" fill="#F7FCFB" fill-opacity="0.3"/>
<path d="M58.8454 136.705C58.8265 136.64 58.8088 136.574 58.7905 136.508C58.75 136.361 58.709 136.209 58.6584 136.06C58.4235 135.352 57.9839 134.764 57.3883 134.359C56.7971 133.957 56.065 133.745 55.2705 133.745H54.6161C52.3183 133.745 50.0211 133.744 47.7226 133.744C41.9705 133.744 37.5864 133.746 33.5074 133.751C33.2977 133.751 33.174 133.699 33.0318 133.552C32.5499 133.054 32.0522 132.558 31.5703 132.078C31.3776 131.886 31.185 131.695 30.993 131.503C30.7479 131.257 30.5035 131.01 30.2584 130.764C29.7266 130.227 29.1771 129.673 28.6269 129.136C27.9473 128.473 27.0782 128.108 26.1788 128.108C25.5952 128.108 25.0141 128.265 24.4993 128.564C23.5734 129.1 22.9632 130 22.8249 131.033C22.6822 132.096 23.0536 133.166 23.8437 133.966C24.6566 134.79 25.4891 135.621 26.2944 136.425C27.2519 137.381 28.2423 138.37 29.2055 139.352C29.9969 140.159 30.9418 140.551 32.0952 140.551H32.0983C36.5026 140.546 40.8765 140.545 44.1957 140.545H49.4311C51.1769 140.546 52.9221 140.546 54.6673 140.546H55.2995C55.3829 140.546 55.4732 140.545 55.566 140.541C57.1053 140.467 58.3477 139.46 58.7317 137.973C58.7538 137.889 58.7791 137.804 58.8062 137.715C58.8195 137.672 58.8321 137.629 58.8448 137.587L58.858 137.543V136.749L58.8454 136.705ZM32.1716 138.3H32.1627C31.6158 138.3 31.2065 138.131 30.8344 137.753C29.647 136.544 28.4299 135.327 27.2519 134.15C26.6841 133.583 26.0967 132.995 25.5207 132.417C25.0305 131.924 24.9572 131.318 25.3305 130.832C25.5472 130.549 25.8485 130.394 26.1788 130.394C26.4674 130.394 26.7523 130.519 26.9803 130.745C27.8021 131.561 28.6345 132.396 29.4386 133.204C29.779 133.545 30.1195 133.887 30.4599 134.228C30.5932 134.361 30.7296 134.496 30.861 134.625C31.1711 134.931 31.4913 135.247 31.7888 135.568C32.097 135.901 32.4653 136.056 32.9472 136.056H32.9516C35.727 136.051 38.4505 136.051 40.7515 136.051H51.2698C52.8564 136.051 54.1386 136.051 55.3052 136.052C55.7132 136.053 56.0473 136.178 56.2703 136.413C56.4724 136.626 56.5691 136.921 56.5514 137.264C56.5261 137.744 56.1598 138.169 55.6987 138.251C55.4997 138.287 55.2881 138.292 55.0892 138.292C52.5513 138.294 50.0666 138.294 47.7599 138.294H43.631C42.676 138.294 41.7204 138.294 40.7654 138.294C39.8104 138.293 38.8547 138.293 37.8997 138.293C35.5893 138.293 33.8233 138.295 32.1716 138.3V138.3Z" fill="#F7FCFB"/>
<path d="M54.9334 132.369C54.9145 132.371 54.8955 132.371 54.8766 132.371C54.2525 132.371 53.7858 131.891 53.7422 131.203C53.6771 130.189 53.0082 129.557 51.997 129.557C49.8186 129.556 47.6401 129.556 45.4617 129.556C43.2832 129.556 41.1048 129.556 38.927 129.557C37.9164 129.557 37.2481 130.189 37.1818 131.204C37.1376 131.891 36.6708 132.371 36.0474 132.371C36.0291 132.371 36.0102 132.371 35.9912 132.369C35.3192 132.338 34.8707 131.804 34.8998 131.07C34.9358 130.16 35.287 129.284 35.8889 128.606C36.4902 127.928 37.3176 127.474 38.2183 127.326C38.241 127.322 38.2789 127.309 38.3156 127.295C38.344 127.284 38.3724 127.273 38.4008 127.264L38.4488 127.248H52.4644L52.5029 127.258L52.6735 127.302C52.796 127.334 52.9185 127.365 53.0404 127.396C54.7547 127.833 55.9535 129.309 56.0242 131.07C56.0539 131.804 55.6048 132.338 54.9334 132.369Z" fill="#F7FCFB"/>
<path d="M39.3659 157.336C39.2055 156.525 38.7943 155.836 38.1779 155.343C37.5646 154.854 36.794 154.595 35.9483 154.595C35.9041 154.595 35.8598 154.596 35.8156 154.597C34.2366 154.647 32.8464 155.967 32.6506 157.6C32.5558 158.392 32.7479 159.197 33.1913 159.867C33.634 160.535 34.301 161.028 35.0697 161.257C35.1455 161.279 35.2232 161.31 35.3059 161.343C35.3482 161.36 35.3905 161.377 35.4329 161.393L35.4865 161.413H36.5906L36.6481 161.389C36.6753 161.378 36.7018 161.366 36.7283 161.354C36.763 161.338 36.7984 161.322 36.8205 161.317C38.6042 160.886 39.7222 159.138 39.3659 157.336ZM37.4559 158.027C37.4357 158.792 36.7934 159.42 36.0436 159.42C36.0253 159.42 36.0064 159.419 35.9881 159.419C35.2156 159.386 34.5972 158.731 34.6168 157.966C34.6358 157.199 35.2775 156.574 36.0297 156.574C36.0481 156.574 36.0657 156.574 36.0841 156.575C36.8553 156.606 37.4761 157.262 37.4559 158.027Z" fill="#F7FCFB"/>
<path d="M58.2152 157.336C58.0548 156.525 57.6436 155.836 57.0271 155.343C56.4144 154.854 55.6432 154.595 54.7975 154.595C54.7539 154.595 54.7091 154.596 54.6655 154.597C53.0858 154.647 51.6956 155.967 51.5005 157.6C51.4051 158.392 51.5971 159.197 52.0405 159.867C52.4833 160.535 53.1503 161.028 53.9196 161.257C53.9947 161.279 54.073 161.31 54.1552 161.343C54.1975 161.36 54.2398 161.377 54.2821 161.393L54.3364 161.413H55.4399L55.4973 161.389C55.5245 161.378 55.551 161.366 55.5782 161.354C55.6123 161.338 55.6483 161.322 55.6698 161.317C57.4535 160.886 58.5714 159.138 58.2152 157.336ZM54.8859 159.419H54.8847C54.1046 159.419 53.4547 158.759 53.4661 157.978C53.4717 157.593 53.6347 157.242 53.8918 156.987C54.1495 156.733 54.5013 156.575 54.8853 156.575C55.6666 156.575 56.3172 157.235 56.3046 158.015C56.2926 158.784 55.6508 159.419 54.8853 159.419H54.8859Z" fill="#F7FCFB"/>
<path d="M51.8236 153.186C51.9582 153.321 52.3681 153.732 52.1748 154.355C52.0422 154.783 51.7434 155.062 51.3114 155.163C51.2318 155.182 51.1516 155.191 51.0733 155.191C50.6747 155.191 50.3873 154.949 50.2054 154.767C49.4121 153.971 48.6188 153.177 47.8255 152.381L47.0979 151.653L46.7637 151.318C46.345 150.898 45.9262 150.479 45.5068 150.06C45.4929 150.046 45.479 150.033 45.4645 150.019C45.4399 150.042 45.4165 150.065 45.3938 150.088C44.8803 150.602 44.3674 151.115 43.8545 151.629C42.8275 152.659 41.7645 153.723 40.7173 154.769C40.4488 155.037 40.1217 155.184 39.797 155.184C39.3915 155.184 39.0397 154.963 38.8319 154.576C38.5104 153.978 38.8167 153.477 39.1306 153.162C40.6099 151.677 42.1068 150.176 43.5804 148.702C43.6745 148.608 43.7705 148.52 43.8867 148.414C43.845 148.384 43.8052 148.35 43.7673 148.313C42.59 147.138 41.395 145.941 40.2398 144.784L39.0902 143.633C38.9601 143.503 38.5647 143.107 38.7435 142.498C38.8723 142.06 39.166 141.775 39.5924 141.671C39.677 141.651 39.7616 141.64 39.8444 141.64C40.248 141.64 40.5442 141.886 40.7577 142.1C41.455 142.8 42.1536 143.499 42.8521 144.199C43.6726 145.021 44.5215 145.871 45.3552 146.709C45.3912 146.745 45.4234 146.782 45.4538 146.821C45.486 146.79 45.5157 146.761 45.5441 146.733C46.9349 145.341 48.5784 143.697 50.2193 142.052C50.3949 141.875 50.6747 141.641 51.0688 141.641C51.1712 141.641 51.276 141.657 51.3809 141.688C51.8173 141.821 52.1003 142.117 52.1988 142.547C52.3207 143.075 52.022 143.449 51.787 143.684C51.2305 144.241 50.6741 144.798 50.1176 145.356C49.1569 146.317 48.164 147.312 47.1844 148.289C47.137 148.336 47.0865 148.377 47.036 148.414C47.0739 148.44 47.1111 148.471 47.1465 148.506C48.2904 149.646 49.45 150.807 50.5711 151.931C50.9886 152.35 51.4061 152.768 51.8236 153.186Z" fill="#F7FCFB"/>
<rect x="100.553" y="101.553" width="85.5534" height="85.5534" rx="30" fill="#F7FCFB" fill-opacity="0.3"/>
<path fill-rule="evenodd" clip-rule="evenodd" d="M136.092 128.916C131.025 128.916 128.863 131.491 128.863 137.523V151.131C128.863 156.686 131.931 159.745 137.5 159.745H151.078C156.633 159.745 159.692 156.686 159.692 151.131V151.125L159.741 142.463C159.741 136.532 157.706 134.22 152.481 134.22H147.543C145.887 134.218 144.306 133.428 143.312 132.105L141.719 129.987C141.218 129.316 140.417 128.918 139.58 128.916H136.092ZM151.078 162.362H137.5C130.559 162.362 126.246 158.058 126.246 151.131V137.523C126.246 130.075 129.559 126.299 136.092 126.299H139.582C141.241 126.301 142.822 127.093 143.813 128.417L145.402 130.532C145.906 131.202 146.707 131.601 147.545 131.603H152.481C159.219 131.603 162.358 135.056 162.358 142.47L162.309 151.136C162.307 158.059 158.005 162.362 151.078 162.362Z" fill="#F7FCFB"/>
<path fill-rule="evenodd" clip-rule="evenodd" d="M151.923 150.225H136.682C135.96 150.225 135.374 149.639 135.374 148.916C135.374 148.194 135.96 147.608 136.682 147.608H151.923C152.645 147.608 153.231 148.194 153.231 148.916C153.231 149.639 152.645 150.225 151.923 150.225Z" fill="#F7FCFB"/>
<rect x="202.107" y="101.553" width="85.5534" height="85.5534" rx="30" fill="#F7FCFB" fill-opacity="0.3"/>
<mask id="mask2_261_2479" style="mask-type:luminance" maskUnits="userSpaceOnUse" x="227" y="125" width="34" height="39">
<path fill-rule="evenodd" clip-rule="evenodd" d="M227.803 125.372H260.17V163.055H227.803V125.372Z" fill="white"/>
</mask>
<g mask="url(#mask2_261_2479)">
<path fill-rule="evenodd" clip-rule="evenodd" d="M236.482 128.219C233.337 128.219 230.725 130.767 230.651 133.908V154.208C230.581 157.459 233.143 160.137 236.362 160.209H251.668C254.836 160.078 257.346 157.446 257.323 154.219V137.383L248.525 128.219H236.505H236.482ZM236.506 163.056H236.299C231.512 162.948 227.7 158.966 227.805 154.177V133.874C227.915 129.165 231.804 125.372 236.479 125.372H236.511H249.133C249.521 125.372 249.891 125.53 250.16 125.809L259.774 135.825C260.028 136.089 260.171 136.444 260.171 136.81V154.208C260.205 158.97 256.496 162.861 251.726 163.054L236.506 163.056Z" fill="#F7FCFB"/>
</g>
<path fill-rule="evenodd" clip-rule="evenodd" d="M258.736 138.606H253.507C250.033 138.597 247.209 135.765 247.209 132.295V126.774C247.209 125.988 247.847 125.35 248.633 125.35C249.418 125.35 250.056 125.988 250.056 126.774V132.295C250.056 134.201 251.607 135.754 253.511 135.759H258.736C259.522 135.759 260.159 136.397 260.159 137.183C260.159 137.969 259.522 138.606 258.736 138.606Z" fill="#F7FCFB"/>
<path fill-rule="evenodd" clip-rule="evenodd" d="M248.279 152.128H238.029C237.243 152.128 236.605 151.491 236.605 150.705C236.605 149.919 237.243 149.281 238.029 149.281H248.279C249.064 149.281 249.702 149.919 249.702 150.705C249.702 151.491 249.064 152.128 248.279 152.128Z" fill="#F7FCFB"/>
<path fill-rule="evenodd" clip-rule="evenodd" d="M244.397 145.007H238.027C237.241 145.007 236.604 144.369 236.604 143.583C236.604 142.798 237.241 142.16 238.027 142.16H244.397C245.183 142.16 245.82 142.798 245.82 143.583C245.82 144.369 245.183 145.007 244.397 145.007Z" fill="#F7FCFB"/>
<rect x="303.66" y="101.553" width="85.5534" height="85.5534" rx="30" fill="#F7FCFB" fill-opacity="0.3"/>
<path d="M365.755 143.666C365.439 143.239 364.975 143.023 364.378 143.023H364.331C364.022 143.029 363.687 143.031 363.274 143.031C363.033 143.031 362.791 143.031 362.546 143.03C362.527 143.029 362.509 143.029 362.49 143.029C362.339 141.376 361.957 139.803 361.349 138.343C360.743 136.888 359.899 135.508 358.833 134.233C358.855 134.212 358.876 134.191 358.898 134.17C359.38 133.696 359.835 133.249 360.297 132.786C360.833 132.248 360.864 131.474 360.371 130.945C360.12 130.679 359.792 130.534 359.444 130.534C359.095 130.534 358.751 130.682 358.474 130.951C358.077 131.338 357.654 131.761 357.178 132.245C357.123 132.302 357.067 132.36 357.013 132.417C355.731 131.351 354.352 130.506 352.901 129.902C351.445 129.295 349.875 128.914 348.225 128.764V128.724C348.223 128.103 348.222 127.516 348.231 126.923C348.236 126.646 348.199 126.407 348.118 126.194C348.013 125.914 347.834 125.681 347.588 125.498L347.387 125.35H346.46L346.26 125.498C345.601 125.986 345.613 126.692 345.617 126.923C345.628 127.514 345.626 128.118 345.623 128.701C345.623 128.715 345.623 128.729 345.623 128.743C343.928 128.944 342.304 129.378 340.785 130.04C340.161 130.312 338.571 131.07 336.843 132.419C336.795 132.371 336.748 132.322 336.701 132.274L336.516 132.087C336.138 131.706 335.747 131.312 335.353 130.931C335.087 130.673 334.752 130.532 334.411 130.532C334.069 130.532 333.739 130.673 333.491 130.931C333.012 131.428 333.01 132.181 333.488 132.722C333.56 132.804 333.632 132.874 333.695 132.936C333.72 132.96 333.744 132.983 333.768 133.008H333.77L333.771 133.01C334.178 133.417 334.585 133.824 335 134.238C333.939 135.504 333.096 136.881 332.491 138.342C331.889 139.798 331.507 141.372 331.354 143.029C331.336 143.029 331.319 143.029 331.301 143.03C331.057 143.031 330.815 143.031 330.573 143.031C330.161 143.031 329.826 143.029 329.518 143.023H329.469C328.872 143.023 328.408 143.24 328.092 143.667L327.943 143.867V144.794L328.092 144.994C328.408 145.421 328.871 145.637 329.469 145.637H329.517C329.819 145.632 330.145 145.63 330.545 145.63C330.79 145.63 331.038 145.63 331.287 145.631C331.31 145.631 331.333 145.632 331.356 145.632C331.507 147.285 331.889 148.858 332.497 150.317C333.102 151.771 333.945 153.148 335.007 154.418C334.997 154.429 334.986 154.439 334.976 154.45C334.475 154.947 334.002 155.417 333.523 155.904C333.006 156.428 332.986 157.19 333.477 157.716C333.728 157.983 334.058 158.128 334.411 158.128C334.763 158.128 335.081 157.99 335.343 157.739C335.734 157.364 336.124 156.977 336.499 156.585C336.61 156.468 336.719 156.349 336.824 156.231C338.109 157.302 339.492 158.149 340.944 158.754C342.399 159.361 343.97 159.745 345.623 159.897C345.623 159.916 345.623 159.934 345.623 159.952C345.626 160.568 345.628 161.149 345.617 161.736C345.606 162.359 345.823 162.838 346.26 163.162L346.46 163.311H347.389L347.59 163.161C348.026 162.836 348.241 162.357 348.231 161.738C348.22 161.154 348.222 160.577 348.224 159.967C348.224 159.944 348.224 159.921 348.224 159.897C349.876 159.748 351.45 159.365 352.91 158.757C354.364 158.151 355.742 157.307 357.016 156.244C357.046 156.274 357.076 156.304 357.106 156.334C357.572 156.806 358.012 157.252 358.468 157.703C358.744 157.978 359.089 158.128 359.439 158.128C359.757 158.128 360.066 158.004 360.308 157.778C360.565 157.537 360.709 157.221 360.719 156.887C360.729 156.53 360.584 156.175 360.311 155.887C360.079 155.643 359.84 155.409 359.61 155.182L359.514 155.087C359.288 154.865 359.059 154.642 358.834 154.423C359.902 153.143 360.747 151.76 361.352 150.305C361.957 148.851 362.339 147.281 362.489 145.632C362.508 145.632 362.527 145.632 362.545 145.631C362.79 145.63 363.032 145.63 363.273 145.63C363.685 145.63 364.021 145.632 364.328 145.638H364.376C364.972 145.638 365.435 145.423 365.753 144.998L365.904 144.796V143.867L365.755 143.666H365.755ZM360.011 147.222C359.395 150.004 357.933 152.48 355.783 154.383C353.631 156.287 351.004 157.426 348.187 157.676C347.757 157.715 347.326 157.734 346.904 157.734C344.298 157.734 341.826 156.991 339.559 155.526C334.999 152.579 332.635 146.837 333.809 141.562C334.215 139.744 334.917 138.105 335.897 136.691C336.45 135.894 337.418 134.713 338.895 133.608C339.998 132.783 341.249 132.113 342.514 131.669C343.684 131.259 344.906 131.014 346.145 130.942C346.396 130.928 346.652 130.92 346.905 130.92C347.795 130.92 348.704 131.012 349.605 131.195C353.138 131.911 356.173 133.978 358.149 137.017C360.131 140.063 360.792 143.687 360.011 147.222Z" fill="#F7FCFB"/>
<path d="M347.762 146.551H347.725C347.484 146.547 347.235 146.543 346.986 146.543C346.809 146.543 346.647 146.545 346.494 146.549C346.337 146.212 346.17 145.881 346.009 145.558C345.933 145.408 345.857 145.257 345.783 145.107C345.756 145.051 345.727 144.993 345.702 144.941C345.739 144.9 345.782 144.854 345.822 144.81C346.008 144.61 346.194 144.411 346.381 144.211C346.728 143.841 347.086 143.457 347.436 143.075C348.017 142.441 348.025 141.58 347.456 141.028C347.182 140.762 346.851 140.622 346.5 140.622C346.222 140.622 345.802 140.714 345.373 141.153C345.29 141.239 345.213 141.323 345.138 141.406C345.096 141.451 345.054 141.497 345.011 141.543C344.645 141.935 344.278 142.326 343.953 142.674L343.666 142.58L342.822 142.306C342.763 142.054 342.697 141.777 342.623 141.5C342.435 140.796 341.892 140.341 341.239 140.341C341.125 140.341 341.009 140.356 340.896 140.384C340.117 140.581 339.702 141.311 339.887 142.158C339.96 142.492 340.038 142.825 340.103 143.104C340.069 143.142 340.035 143.181 340.001 143.218C339.723 143.529 339.479 143.801 339.233 144.064C338.339 143.995 337.447 143.911 336.673 143.837C336.595 143.829 336.518 143.826 336.444 143.826C335.616 143.826 335.032 144.317 334.957 145.078C334.914 145.514 335.048 145.911 335.335 146.197C335.589 146.45 335.943 146.601 336.386 146.646C336.504 146.658 336.622 146.671 336.74 146.683C337.35 146.746 337.981 146.812 338.616 146.836C338.914 146.848 338.976 146.883 338.986 146.891C338.986 146.891 339.018 146.922 339.053 147.042C339.154 147.386 339.302 147.699 339.458 147.999C339.42 148.012 339.381 148.025 339.341 148.038C339.235 148.072 339.127 148.108 339.017 148.146C338.363 148.374 337.991 148.877 337.995 149.525C338.001 150.311 338.608 150.903 339.407 150.903C339.572 150.903 339.738 150.877 339.902 150.826C340.207 150.732 340.509 150.628 340.803 150.525C341.217 151.077 341.768 151.454 342.448 151.651C342.45 151.681 342.452 151.711 342.455 151.741C342.492 152.259 342.528 152.749 342.568 153.25C342.648 154.262 343.335 154.715 343.98 154.715C344.027 154.715 344.075 154.713 344.124 154.708C344.942 154.632 345.447 153.967 345.382 153.054C345.37 152.888 345.359 152.722 345.348 152.557C345.316 152.096 345.284 151.621 345.239 151.148C346.023 150.758 346.561 150.162 346.846 149.372C346.959 149.373 347.071 149.373 347.182 149.373C347.408 149.373 347.593 149.371 347.766 149.369C348.242 149.36 348.64 149.2 348.918 148.906C349.166 148.644 349.294 148.291 349.28 147.913C349.25 147.124 348.627 146.564 347.762 146.551ZM344.329 149.287C344.127 149.395 343.923 149.501 343.714 149.591C343.545 149.664 343.379 149.701 343.223 149.701C342.864 149.701 342.556 149.51 342.363 149.135C341.853 148.142 341.367 147.137 340.88 146.134C340.814 145.995 340.795 145.834 340.776 145.761C340.792 145.185 341.08 144.904 341.498 144.702C341.83 144.543 342.157 144.346 342.501 144.346C342.68 144.346 342.864 144.399 343.056 144.539C343.199 144.643 343.319 144.805 343.401 144.965C343.879 145.909 344.351 146.857 344.811 147.81C345.118 148.444 344.943 148.959 344.329 149.287Z" fill="#F7FCFB"/>
<path d="M358.043 147.142C357.943 146.496 357.634 145.872 357.124 145.283C357.396 144.535 357.467 143.834 357.336 143.195C357.168 142.379 356.67 141.701 355.895 141.231C355.391 140.926 354.816 140.765 354.232 140.765C353.241 140.765 352.32 141.216 351.705 142.003C351.152 142.71 350.926 143.513 351.051 144.326C351.15 144.963 351.458 145.59 351.968 146.195C351.692 146.937 351.62 147.638 351.754 148.284C351.923 149.106 352.423 149.789 353.199 150.259C353.701 150.564 354.275 150.724 354.859 150.724C355.851 150.724 356.774 150.273 357.39 149.485C357.946 148.776 358.172 147.966 358.043 147.142ZM353.103 143.936C353.117 143.32 353.621 142.828 354.236 142.828H354.237C354.867 142.828 355.374 143.347 355.367 143.984C355.362 144.605 354.848 145.118 354.238 145.118C354.229 145.118 354.219 145.118 354.21 145.117C353.577 145.101 353.088 144.58 353.103 143.936ZM354.859 148.66H354.853C354.229 148.657 353.716 148.129 353.722 147.498C353.729 146.889 354.231 146.383 354.845 146.369C354.853 146.368 354.862 146.368 354.87 146.368C355.48 146.368 355.993 146.886 355.995 147.51C355.997 148.143 355.486 148.66 354.859 148.66Z" fill="#F7FCFB"/>
<path d="M349.943 133.73C349.291 133.072 348.43 132.708 347.519 132.708C345.646 132.708 344.112 134.232 344.1 136.104C344.094 137.027 344.445 137.892 345.088 138.54C345.73 139.187 346.591 139.545 347.512 139.546H347.518C349.387 139.546 350.922 138.029 350.941 136.166C350.951 135.254 350.596 134.39 349.943 133.73ZM347.522 137.487H347.518C346.772 137.487 346.149 136.861 346.157 136.119C346.166 135.39 346.774 134.79 347.51 134.787H347.517C348.248 134.787 348.856 135.377 348.874 136.108C348.893 136.849 348.271 137.484 347.522 137.487Z" fill="#F7FCFB"/>
<rect x="-1" y="203.107" width="85.5534" height="85.5534" rx="30" fill="#F7FCFB" fill-opacity="0.3"/>
<path fill-rule="evenodd" clip-rule="evenodd" d="M41.7747 241.407C39.2503 241.407 37.1985 243.46 37.1985 245.985C37.1985 248.507 39.2503 250.559 41.7747 250.559C44.2991 250.559 46.3528 248.507 46.3528 245.985C46.3528 243.46 44.2991 241.407 41.7747 241.407ZM41.7749 253.406C37.6808 253.406 34.3516 250.077 34.3516 245.985C34.3516 241.891 37.6808 238.56 41.7749 238.56C45.869 238.56 49.2001 241.891 49.2001 245.985C49.2001 250.077 45.869 253.406 41.7749 253.406Z" fill="#F7FCFB"/>
<mask id="mask3_261_2479" style="mask-type:luminance" maskUnits="userSpaceOnUse" x="22" y="230" width="39" height="32">
<path fill-rule="evenodd" clip-rule="evenodd" d="M22.7949 230.699H60.7558V261.268H22.7949V230.699Z" fill="white"/>
</mask>
<g mask="url(#mask3_261_2479)">
<path fill-rule="evenodd" clip-rule="evenodd" d="M25.7755 245.983C29.3059 253.782 35.2525 258.419 41.7761 258.421C48.2997 258.419 54.2463 253.782 57.7767 245.983C54.2463 238.186 48.2997 233.549 41.7761 233.547C35.2544 233.549 29.3059 238.186 25.7755 245.983ZM41.7788 261.268H41.7712H41.7693C33.919 261.263 26.8696 255.76 22.9102 246.545C22.7565 246.186 22.7565 245.78 22.9102 245.421C26.8696 236.208 33.9209 230.706 41.7693 230.7C41.7731 230.698 41.7731 230.698 41.775 230.7C41.7788 230.698 41.7788 230.698 41.7807 230.7C49.6311 230.706 56.6805 236.208 60.6398 245.421C60.7955 245.78 60.7955 246.186 60.6398 246.545C56.6824 255.76 49.6311 261.263 41.7807 261.268H41.7788Z" fill="#F7FCFB"/>
</g>
<rect x="100.553" y="203.107" width="85.5534" height="85.5534" rx="30" fill="#F7FCFB" fill-opacity="0.3"/>
<path d="M138.289 226.903C138.709 226.903 139.129 226.903 139.549 226.903C139.629 226.928 139.706 226.963 139.787 226.977C140.858 227.166 141.797 227.621 142.608 228.347C142.864 228.576 143.138 228.786 143.415 229.015C143.451 228.975 143.556 228.858 143.661 228.742C144.338 227.994 145.159 227.465 146.121 227.162C146.446 227.06 146.781 226.988 147.111 226.903C147.532 226.903 147.951 226.903 148.372 226.903C148.441 226.924 148.51 226.954 148.582 226.967C150.933 227.382 152.454 228.744 153.156 231.015C153.236 231.274 153.325 231.357 153.595 231.371C156.64 231.522 158.98 234.01 158.894 237.051C158.874 237.789 158.659 238.521 158.523 239.314C158.543 239.327 158.643 239.396 158.745 239.462C160.348 240.507 161.448 241.937 161.973 243.778C162.147 244.389 162.201 245.033 162.311 245.661V246.105C162.291 246.225 162.261 246.343 162.252 246.464C162.103 248.335 161.365 249.942 160.034 251.256C159.555 251.729 158.995 252.118 158.45 252.564C158.461 252.597 158.481 252.666 158.506 252.733C159.904 256.434 157.483 260.164 153.52 260.398C153.277 260.413 153.226 260.514 153.169 260.718C152.708 262.366 151.711 263.591 150.162 264.315C149.602 264.578 148.971 264.685 148.371 264.863H147.185C147.116 264.841 147.047 264.809 146.976 264.799C146.003 264.661 145.127 264.287 144.365 263.673C143.996 263.375 143.67 263.023 143.3 262.672C142.717 263.409 142.01 264.019 141.127 264.372C140.596 264.584 140.026 264.703 139.474 264.863H138.288C138.218 264.841 138.15 264.811 138.079 264.799C135.728 264.383 134.207 263.021 133.504 260.752C133.424 260.493 133.335 260.409 133.065 260.395C130.004 260.239 127.671 257.742 127.767 254.678C127.79 253.953 128.005 253.234 128.141 252.454C128.14 252.453 128.063 252.393 127.982 252.342C126.515 251.414 125.43 250.157 124.871 248.512C124.609 247.74 124.518 246.91 124.35 246.106C124.35 245.958 124.35 245.81 124.35 245.661C124.37 245.529 124.4 245.397 124.41 245.264C124.558 243.489 125.236 241.943 126.475 240.67C126.994 240.136 127.608 239.694 128.205 239.187C128.199 239.169 128.179 239.101 128.154 239.033C126.75 235.341 129.183 231.593 133.139 231.368C133.382 231.354 133.434 231.253 133.49 231.048C133.923 229.498 134.829 228.297 136.27 227.575C136.898 227.26 137.613 227.121 138.289 226.903ZM159.94 244.824C159.747 243.841 159.325 243.018 158.688 242.308C157.515 241.003 156.017 240.456 154.286 240.491V238.241C154.986 238.3 155.647 238.357 156.333 238.415C156.349 238.387 156.384 238.338 156.409 238.283C157.296 236.356 156.047 233.973 153.948 233.658C153.282 233.559 152.594 233.6 151.916 233.582C151.662 233.575 151.409 233.58 151.124 233.58C151.124 233.115 151.137 232.709 151.122 232.303C151.061 230.662 149.754 229.299 148.097 229.138C146.452 228.978 144.874 230.121 144.529 231.732C144.474 231.99 144.463 232.255 144.431 232.522C147.037 232.611 148.228 234.525 148.265 236.089C148.286 236.958 148.05 237.749 147.518 238.44C146.752 239.437 145.715 239.897 144.474 239.908V244.837H148.894C148.894 244.99 148.894 245.111 148.894 245.232C148.894 245.887 148.888 246.542 148.896 247.196C148.906 248.055 149.539 248.7 150.357 248.695C151.16 248.691 151.779 248.057 151.793 247.216C151.801 246.734 151.795 246.252 151.795 245.77C151.795 245.466 151.795 245.161 151.795 244.822H159.941L159.94 244.824ZM142.218 237.672C142.397 237.672 142.53 237.672 142.663 237.672C143.342 237.67 144.023 237.686 144.701 237.659C145.413 237.632 145.955 237.083 146.037 236.357C146.113 235.685 145.665 235.016 144.997 234.839C144.786 234.783 144.559 234.774 144.338 234.771C143.639 234.763 142.941 234.768 142.214 234.768C142.214 233.929 142.232 233.141 142.211 232.353C142.163 230.59 140.693 229.155 138.931 229.13C137.092 229.103 135.592 230.537 135.535 232.381C135.523 232.772 135.534 233.164 135.534 233.584C134.765 233.584 134.05 233.575 133.336 233.586C132.32 233.602 131.463 233.982 130.788 234.747C129.888 235.766 129.698 237.409 130.343 238.414C131.023 238.358 131.692 238.303 132.389 238.246V240.497C131.055 240.467 129.83 240.772 128.765 241.582C127.693 242.397 127.012 243.46 126.719 244.8H132.614C132.628 242.308 134.555 240.964 136.236 240.948C137.105 240.939 137.892 241.191 138.576 241.732C139.563 242.513 139.992 243.563 140.006 244.8H142.218V237.674V237.672ZM126.748 247.054C126.94 247.987 127.354 248.762 127.952 249.435C129.125 250.754 130.633 251.313 132.387 251.276V253.524C131.69 253.466 131.021 253.411 130.326 253.354C130.31 253.383 130.275 253.433 130.25 253.487C129.363 255.412 130.617 257.798 132.715 258.108C133.417 258.211 134.142 258.166 134.858 258.185C135.074 258.191 135.29 258.186 135.535 258.186C135.535 258.64 135.524 259.034 135.537 259.427C135.594 261.084 136.853 262.427 138.528 262.625C140.086 262.809 141.629 261.78 142.069 260.245C142.161 259.924 142.187 259.584 142.245 259.244C139.677 259.159 138.438 257.293 138.396 255.677C138.373 254.807 138.609 254.016 139.142 253.325C139.909 252.332 140.944 251.865 142.191 251.859V247.038H137.768C137.768 246.875 137.768 246.741 137.768 246.609C137.768 245.93 137.782 245.25 137.761 244.571C137.737 243.77 137.067 243.147 136.285 243.166C135.503 243.185 134.888 243.796 134.871 244.591C134.858 245.232 134.868 245.875 134.867 246.517C134.867 246.684 134.867 246.852 134.867 247.053H126.748V247.054ZM154.027 247.073C154.035 248.106 153.727 249.008 153.025 249.753C152.322 250.5 151.449 250.889 150.427 250.916C149.558 250.94 148.772 250.674 148.088 250.135C147.101 249.357 146.667 248.308 146.654 247.069H144.438V254.097C143.616 254.097 142.84 254.086 142.065 254.101C141.239 254.117 140.625 254.733 140.613 255.527C140.602 256.321 141.242 256.975 142.069 256.996C142.625 257.01 143.18 257 143.736 257C143.966 257 144.195 257 144.445 257C144.445 257.843 144.427 258.633 144.449 259.422C144.497 261.165 145.957 262.6 147.7 262.638C149.557 262.678 151.067 261.243 151.125 259.378C151.137 258.988 151.127 258.597 151.127 258.183C151.929 258.183 152.67 258.203 153.409 258.179C155.76 258.103 157.316 255.76 156.465 253.607C156.377 253.387 156.289 253.317 156.036 253.357C155.538 253.436 155.031 253.462 154.526 253.488C154.438 253.492 154.267 253.39 154.265 253.332C154.247 252.658 154.253 251.982 154.253 251.27C155.606 251.303 156.819 250.997 157.877 250.2C158.926 249.408 159.608 248.38 159.912 247.075H154.027V247.073Z" fill="#F7FCFB"/>
<rect x="202.107" y="203.107" width="85.5534" height="85.5534" rx="30" fill="#F7FCFB" fill-opacity="0.3"/>
<path d="M261.953 238.259C261.934 238.193 261.916 238.127 261.898 238.061C261.857 237.915 261.816 237.763 261.766 237.613C261.531 236.905 261.091 236.317 260.496 235.912C259.904 235.51 259.172 235.298 258.378 235.298H257.724C255.426 235.298 253.129 235.297 250.83 235.297C245.078 235.297 240.694 235.299 236.615 235.304C236.405 235.304 236.281 235.252 236.139 235.105C235.657 234.607 235.16 234.111 234.678 233.631C234.485 233.44 234.292 233.248 234.1 233.056C233.855 232.81 233.611 232.563 233.366 232.317C232.834 231.781 232.285 231.226 231.734 230.689C231.055 230.026 230.186 229.661 229.286 229.661C228.703 229.661 228.122 229.819 227.607 230.117C226.681 230.653 226.071 231.553 225.932 232.586C225.79 233.65 226.161 234.719 226.951 235.519C227.764 236.344 228.596 237.174 229.402 237.978C230.359 238.934 231.35 239.923 232.313 240.905C233.104 241.712 234.049 242.104 235.203 242.104H235.206C239.61 242.099 243.984 242.098 247.303 242.098H252.539C254.284 242.099 256.03 242.099 257.775 242.099H258.407C258.49 242.099 258.581 242.098 258.673 242.094C260.213 242.021 261.455 241.013 261.839 239.527C261.861 239.442 261.887 239.358 261.914 239.268C261.927 239.225 261.94 239.182 261.952 239.14L261.965 239.096V238.302L261.953 238.259ZM235.279 239.853H235.27C234.723 239.853 234.314 239.684 233.942 239.306C232.754 238.097 231.537 236.88 230.359 235.703C229.792 235.136 229.204 234.549 228.628 233.97C228.138 233.477 228.065 232.871 228.438 232.385C228.655 232.103 228.956 231.948 229.286 231.948C229.575 231.948 229.86 232.072 230.088 232.298C230.909 233.114 231.742 233.949 232.546 234.757C232.886 235.098 233.227 235.44 233.567 235.781C233.701 235.915 233.837 236.049 233.968 236.178C234.279 236.484 234.599 236.8 234.896 237.121C235.204 237.455 235.573 237.61 236.055 237.61H236.059C238.834 237.605 241.558 237.604 243.859 237.604H254.377C255.964 237.604 257.246 237.605 258.413 237.605C258.821 237.606 259.155 237.731 259.378 237.966C259.58 238.18 259.676 238.474 259.659 238.817C259.634 239.298 259.267 239.722 258.806 239.804C258.607 239.84 258.396 239.845 258.197 239.845C255.659 239.847 253.174 239.847 250.867 239.847H246.738C245.783 239.847 244.828 239.847 243.873 239.847C242.918 239.846 241.962 239.846 241.007 239.846C238.697 239.846 236.931 239.849 235.279 239.854V239.853Z" fill="#F7FCFB"/>
<path d="M258.041 233.923C258.022 233.924 258.003 233.924 257.984 233.924C257.36 233.924 256.893 233.444 256.85 232.757C256.785 231.742 256.116 231.11 255.104 231.11C252.926 231.109 250.748 231.109 248.569 231.109C246.391 231.109 244.212 231.109 242.034 231.11C241.024 231.11 240.356 231.742 240.289 232.757C240.245 233.444 239.778 233.924 239.155 233.924C239.137 233.924 239.118 233.924 239.099 233.923C238.427 233.892 237.978 233.358 238.007 232.624C238.043 231.713 238.394 230.838 238.996 230.159C239.598 229.481 240.425 229.027 241.326 228.879C241.348 228.876 241.386 228.862 241.423 228.848C241.451 228.837 241.48 228.826 241.508 228.817L241.556 228.801H255.572L255.61 228.811L255.781 228.855C255.903 228.887 256.026 228.919 256.148 228.95C257.862 229.386 259.061 230.862 259.132 232.624C259.161 233.357 258.712 233.892 258.041 233.923Z" fill="#F7FCFB"/>
<path d="M242.473 258.89C242.313 258.078 241.902 257.389 241.285 256.897C240.672 256.407 239.901 256.148 239.056 256.148C239.011 256.148 238.967 256.149 238.923 256.15C237.344 256.201 235.954 257.52 235.758 259.153C235.663 259.946 235.855 260.75 236.299 261.42C236.741 262.088 237.408 262.581 238.177 262.81C238.253 262.832 238.331 262.863 238.413 262.896C238.456 262.913 238.498 262.93 238.54 262.946L238.594 262.966H239.698L239.756 262.943C239.783 262.931 239.809 262.919 239.836 262.907C239.87 262.891 239.906 262.875 239.928 262.87C241.712 262.439 242.83 260.691 242.473 258.89ZM240.563 259.58C240.543 260.345 239.901 260.973 239.151 260.973C239.133 260.973 239.114 260.972 239.095 260.972C238.323 260.94 237.705 260.285 237.724 259.519C237.743 258.752 238.385 258.127 239.137 258.127C239.155 258.127 239.173 258.127 239.191 258.129C239.963 258.159 240.584 258.816 240.563 259.58Z" fill="#F7FCFB"/>
<path d="M261.323 258.89C261.162 258.078 260.751 257.389 260.135 256.897C259.522 256.407 258.751 256.148 257.905 256.148C257.861 256.148 257.817 256.149 257.773 256.15C256.193 256.201 254.803 257.52 254.608 259.153C254.513 259.946 254.705 260.75 255.148 261.42C255.591 262.088 256.258 262.581 257.027 262.81C257.102 262.832 257.18 262.863 257.263 262.896C257.305 262.913 257.347 262.93 257.39 262.946L257.444 262.966H258.547L258.605 262.943C258.632 262.931 258.658 262.919 258.686 262.907C258.72 262.891 258.756 262.875 258.777 262.87C260.561 262.439 261.679 260.691 261.323 258.89ZM257.993 260.972H257.992C257.212 260.972 256.562 260.312 256.573 259.531C256.579 259.146 256.742 258.795 256.999 258.54C257.257 258.286 257.609 258.128 257.993 258.128C258.774 258.128 259.425 258.788 259.412 259.568C259.4 260.337 258.758 260.972 257.993 260.972H257.993Z" fill="#F7FCFB"/>
<path d="M254.931 254.739C255.066 254.874 255.476 255.285 255.282 255.908C255.15 256.336 254.851 256.615 254.419 256.717C254.339 256.735 254.259 256.744 254.181 256.744C253.782 256.744 253.495 256.502 253.313 256.32C252.52 255.525 251.726 254.73 250.933 253.935L250.205 253.206L249.871 252.871C249.452 252.452 249.034 252.032 248.614 251.613C248.6 251.599 248.586 251.586 248.572 251.572C248.547 251.595 248.524 251.618 248.501 251.641C247.988 252.155 247.475 252.669 246.962 253.182C245.935 254.212 244.872 255.277 243.825 256.322C243.556 256.59 243.229 256.738 242.904 256.738C242.499 256.738 242.147 256.516 241.939 256.129C241.618 255.531 241.924 255.03 242.238 254.715C243.717 253.23 245.214 251.729 246.688 250.256C246.782 250.161 246.878 250.073 246.994 249.967C246.952 249.937 246.913 249.903 246.875 249.866C245.697 248.691 244.502 247.495 243.347 246.337L242.198 245.186C242.068 245.056 241.672 244.66 241.851 244.052C241.98 243.614 242.273 243.328 242.7 243.225C242.784 243.204 242.869 243.194 242.952 243.194C243.355 243.194 243.652 243.439 243.865 243.653C244.562 244.353 245.261 245.052 245.96 245.752C246.78 246.574 247.629 247.424 248.463 248.262C248.499 248.298 248.531 248.335 248.561 248.374C248.593 248.343 248.623 248.315 248.652 248.286C250.042 246.894 251.686 245.25 253.327 243.605C253.502 243.428 253.782 243.194 254.176 243.194C254.279 243.194 254.383 243.21 254.488 243.242C254.925 243.374 255.208 243.671 255.306 244.1C255.428 244.629 255.129 245.002 254.894 245.237C254.338 245.794 253.782 246.351 253.225 246.909C252.264 247.87 251.271 248.865 250.292 249.842C250.244 249.889 250.194 249.93 250.143 249.967C250.181 249.994 250.219 250.024 250.254 250.06C251.398 251.199 252.557 252.361 253.679 253.484C254.096 253.903 254.514 254.321 254.931 254.739Z" fill="#F7FCFB"/>
<rect x="303.66" y="203.107" width="85.5534" height="85.5534" rx="30" fill="#F7FCFB" fill-opacity="0.3"/>
<path fill-rule="evenodd" clip-rule="evenodd" d="M339.199 230.469C334.133 230.469 331.971 233.045 331.971 239.076V252.684C331.971 258.239 335.038 261.298 340.607 261.298H354.185C359.741 261.298 362.799 258.239 362.799 252.684V252.679L362.848 244.016C362.848 238.085 360.814 235.773 355.588 235.773H350.65C348.995 235.772 347.414 234.981 346.419 233.659L344.826 231.541C344.326 230.869 343.525 230.471 342.687 230.469H339.199ZM354.185 263.915H340.607C333.667 263.915 329.354 259.611 329.354 252.684V239.076C329.354 231.628 332.667 227.852 339.199 227.852H342.689C344.348 227.854 345.929 228.646 346.92 229.97L348.51 232.085C349.014 232.755 349.815 233.154 350.652 233.156H355.588C362.327 233.156 365.465 236.609 365.465 244.023L365.417 252.689C365.415 259.612 361.112 263.915 354.185 263.915Z" fill="#F7FCFB"/>
<path fill-rule="evenodd" clip-rule="evenodd" d="M355.03 251.778H339.79C339.067 251.778 338.481 251.192 338.481 250.469C338.481 249.747 339.067 249.161 339.79 249.161H355.03C355.753 249.161 356.339 249.747 356.339 250.469C356.339 251.192 355.753 251.778 355.03 251.778Z" fill="#F7FCFB"/>
<rect x="-1" y="304.66" width="85.5534" height="85.5534" rx="30" fill="#F7FCFB" fill-opacity="0.3"/>
<path d="M58.8454 339.812C58.8265 339.746 58.8088 339.681 58.7905 339.615C58.75 339.468 58.709 339.316 58.6584 339.166C58.4235 338.458 57.9839 337.87 57.3883 337.466C56.7971 337.064 56.065 336.851 55.2705 336.851H54.6161C52.3183 336.851 50.0211 336.851 47.7226 336.851C41.9705 336.851 37.5864 336.852 33.5074 336.858C33.2977 336.858 33.174 336.806 33.0318 336.659C32.5499 336.16 32.0522 335.664 31.5703 335.185C31.3776 334.993 31.185 334.801 30.993 334.61C30.7479 334.363 30.5035 334.117 30.2584 333.871C29.7266 333.334 29.1771 332.78 28.6269 332.243C27.9473 331.58 27.0782 331.215 26.1788 331.215C25.5952 331.215 25.0141 331.372 24.4993 331.671C23.5734 332.207 22.9632 333.107 22.8249 334.14C22.6822 335.203 23.0536 336.272 23.8437 337.073C24.6566 337.897 25.4891 338.728 26.2944 339.532C27.2519 340.488 28.2423 341.477 29.2055 342.459C29.9969 343.265 30.9418 343.658 32.0952 343.658H32.0983C36.5026 343.653 40.8765 343.652 44.1957 343.652H49.4311C51.1769 343.653 52.9221 343.653 54.6673 343.653H55.2995C55.3829 343.653 55.4732 343.652 55.566 343.648C57.1053 343.574 58.3477 342.566 58.7317 341.08C58.7538 340.995 58.7791 340.911 58.8062 340.821C58.8195 340.779 58.8321 340.736 58.8448 340.694L58.858 340.65V339.855L58.8454 339.812ZM32.1716 341.407H32.1627C31.6158 341.407 31.2065 341.238 30.8344 340.859C29.647 339.651 28.4299 338.434 27.2519 337.257C26.6841 336.689 26.0967 336.102 25.5207 335.524C25.0305 335.031 24.9572 334.424 25.3305 333.938C25.5472 333.656 25.8485 333.501 26.1788 333.501C26.4674 333.501 26.7523 333.626 26.9803 333.852C27.8021 334.668 28.6345 335.503 29.4386 336.31C29.779 336.652 30.1195 336.994 30.4599 337.335C30.5932 337.468 30.7296 337.602 30.861 337.732C31.1711 338.037 31.4913 338.353 31.7888 338.675C32.097 339.008 32.4653 339.163 32.9472 339.163H32.9516C35.727 339.158 38.4505 339.157 40.7515 339.157H51.2698C52.8564 339.157 54.1386 339.158 55.3052 339.159C55.7132 339.159 56.0473 339.285 56.2703 339.52C56.4724 339.733 56.5691 340.027 56.5514 340.37C56.5261 340.851 56.1598 341.276 55.6987 341.358C55.4997 341.393 55.2881 341.398 55.0892 341.398C52.5513 341.4 50.0666 341.4 47.7599 341.4H43.631C42.676 341.4 41.7204 341.4 40.7654 341.4C39.8104 341.4 38.8547 341.4 37.8997 341.4C35.5893 341.4 33.8233 341.402 32.1716 341.407V341.407Z" fill="#F7FCFB"/>
<path d="M54.9334 335.476C54.9145 335.477 54.8955 335.477 54.8766 335.477C54.2525 335.477 53.7858 334.998 53.7422 334.31C53.6771 333.295 53.0082 332.664 51.997 332.664C49.8186 332.663 47.6401 332.663 45.4617 332.663C43.2832 332.663 41.1048 332.663 38.927 332.664C37.9164 332.664 37.2481 333.295 37.1818 334.311C37.1376 334.998 36.6708 335.477 36.0474 335.477C36.0291 335.477 36.0102 335.477 35.9912 335.476C35.3192 335.445 34.8707 334.911 34.8998 334.177C34.9358 333.267 35.287 332.391 35.8889 331.713C36.4902 331.035 37.3176 330.58 38.2183 330.433C38.241 330.429 38.2789 330.415 38.3156 330.401C38.344 330.391 38.3724 330.38 38.4008 330.37L38.4488 330.354H52.4644L52.5029 330.365L52.6735 330.408C52.796 330.441 52.9185 330.472 53.0404 330.503C54.7547 330.94 55.9535 332.416 56.0242 334.177C56.0539 334.91 55.6048 335.445 54.9334 335.476Z" fill="#F7FCFB"/>
<path d="M39.3659 360.443C39.2055 359.631 38.7943 358.942 38.1779 358.45C37.5646 357.96 36.794 357.702 35.9483 357.702C35.9041 357.702 35.8598 357.702 35.8156 357.704C34.2366 357.754 32.8464 359.073 32.6506 360.707C32.5558 361.499 32.7479 362.304 33.1913 362.973C33.634 363.641 34.301 364.135 35.0697 364.363C35.1455 364.385 35.2232 364.416 35.3059 364.449C35.3482 364.466 35.3905 364.483 35.4329 364.499L35.4865 364.519H36.5906L36.6481 364.496C36.6753 364.485 36.7018 364.473 36.7283 364.461C36.763 364.445 36.7984 364.428 36.8205 364.423C38.6042 363.992 39.7222 362.244 39.3659 360.443ZM37.4559 361.133C37.4357 361.899 36.7934 362.527 36.0436 362.527C36.0253 362.527 36.0064 362.526 35.9881 362.525C35.2156 362.493 34.5972 361.838 34.6168 361.073C34.6358 360.306 35.2775 359.681 36.0297 359.681C36.0481 359.681 36.0657 359.681 36.0841 359.682C36.8553 359.712 37.4761 360.369 37.4559 361.133Z" fill="#F7FCFB"/>
<path d="M58.2152 360.443C58.0548 359.631 57.6436 358.942 57.0271 358.45C56.4144 357.96 55.6432 357.702 54.7975 357.702C54.7539 357.702 54.7091 357.702 54.6655 357.704C53.0858 357.754 51.6956 359.073 51.5005 360.707C51.4051 361.499 51.5971 362.304 52.0405 362.973C52.4833 363.641 53.1503 364.135 53.9196 364.363C53.9947 364.385 54.073 364.416 54.1552 364.449C54.1975 364.466 54.2398 364.483 54.2821 364.499L54.3364 364.519H55.4399L55.4973 364.496C55.5245 364.485 55.551 364.473 55.5782 364.461C55.6123 364.445 55.6483 364.428 55.6698 364.423C57.4535 363.992 58.5714 362.244 58.2152 360.443ZM54.8859 362.526H54.8847C54.1046 362.525 53.4547 361.865 53.4661 361.085C53.4717 360.699 53.6347 360.349 53.8918 360.094C54.1495 359.84 54.5013 359.681 54.8853 359.681C55.6666 359.681 56.3172 360.341 56.3046 361.121C56.2926 361.891 55.6508 362.526 54.8853 362.526H54.8859Z" fill="#F7FCFB"/>
<path d="M51.8236 356.293C51.9582 356.428 52.3681 356.838 52.1748 357.462C52.0422 357.889 51.7434 358.169 51.3114 358.27C51.2318 358.288 51.1516 358.298 51.0733 358.298C50.6747 358.298 50.3873 358.056 50.2054 357.873C49.4121 357.078 48.6188 356.283 47.8255 355.488L47.0979 354.76L46.7637 354.425C46.345 354.005 45.9262 353.586 45.5068 353.167C45.4929 353.153 45.479 353.14 45.4645 353.126C45.4399 353.149 45.4165 353.172 45.3938 353.195C44.8803 353.708 44.3674 354.222 43.8545 354.736C42.8275 355.765 41.7645 356.83 40.7173 357.875C40.4488 358.144 40.1217 358.291 39.797 358.291C39.3915 358.291 39.0397 358.07 38.8319 357.682C38.5104 357.084 38.8167 356.583 39.1306 356.268C40.6099 354.783 42.1068 353.283 43.5804 351.809C43.6745 351.715 43.7705 351.626 43.8867 351.521C43.845 351.49 43.8052 351.457 43.7673 351.419C42.59 350.244 41.395 349.048 40.2398 347.891L39.0902 346.739C38.9601 346.61 38.5647 346.214 38.7435 345.605C38.8723 345.167 39.166 344.881 39.5924 344.778C39.677 344.757 39.7616 344.747 39.8444 344.747C40.248 344.747 40.5442 344.993 40.7577 345.206C41.455 345.907 42.1536 346.606 42.8521 347.306C43.6726 348.128 44.5215 348.978 45.3552 349.816C45.3912 349.852 45.4234 349.889 45.4538 349.928C45.486 349.897 45.5157 349.868 45.5441 349.84C46.9349 348.448 48.5784 346.803 50.2193 345.158C50.3949 344.982 50.6747 344.748 51.0688 344.748C51.1712 344.748 51.276 344.764 51.3809 344.795C51.8173 344.927 52.1003 345.224 52.1988 345.654C52.3207 346.182 52.022 346.555 51.787 346.791C51.2305 347.347 50.6741 347.905 50.1176 348.462C49.1569 349.424 48.164 350.418 47.1844 351.395C47.137 351.443 47.0865 351.484 47.036 351.521C47.0739 351.547 47.1111 351.578 47.1465 351.613C48.2904 352.752 49.45 353.914 50.5711 355.038C50.9886 355.457 51.4061 355.875 51.8236 356.293Z" fill="#F7FCFB"/>
<rect x="100.553" y="304.66" width="85.5534" height="85.5534" rx="30" fill="#F7FCFB" fill-opacity="0.3"/>
<path fill-rule="evenodd" clip-rule="evenodd" d="M136.092 332.023C131.025 332.023 128.863 334.598 128.863 340.63V354.237C128.863 359.793 131.931 362.851 137.5 362.851H151.078C156.633 362.851 159.692 359.793 159.692 354.237V354.232L159.741 345.569C159.741 339.639 157.706 337.327 152.481 337.327H147.543C145.887 337.325 144.306 336.535 143.312 335.212L141.719 333.094C141.218 332.422 140.417 332.024 139.58 332.023H136.092ZM151.078 365.469H137.5C130.559 365.469 126.246 361.164 126.246 354.237V340.63C126.246 333.181 129.559 329.406 136.092 329.406H139.582C141.241 329.407 142.822 330.199 143.813 331.524L145.402 333.638C145.906 334.308 146.707 334.708 147.545 334.71H152.481C159.219 334.71 162.358 338.163 162.358 345.576L162.309 354.243C162.307 361.166 158.005 365.469 151.078 365.469Z" fill="#F7FCFB"/>
<path fill-rule="evenodd" clip-rule="evenodd" d="M151.923 353.332H136.682C135.96 353.332 135.374 352.745 135.374 352.023C135.374 351.301 135.96 350.714 136.682 350.714H151.923C152.645 350.714 153.231 351.301 153.231 352.023C153.231 352.745 152.645 353.332 151.923 353.332Z" fill="#F7FCFB"/>
<rect x="202.107" y="304.66" width="85.5534" height="85.5534" rx="30" fill="#F7FCFB" fill-opacity="0.3"/>
<mask id="mask4_261_2479" style="mask-type:luminance" maskUnits="userSpaceOnUse" x="227" y="328" width="34" height="39">
<path fill-rule="evenodd" clip-rule="evenodd" d="M227.803 328.479H260.17V366.162H227.803V328.479Z" fill="white"/>
</mask>
<g mask="url(#mask4_261_2479)">
<path fill-rule="evenodd" clip-rule="evenodd" d="M236.482 331.326C233.337 331.326 230.725 333.873 230.651 337.015V357.314C230.581 360.566 233.143 363.244 236.362 363.316H251.668C254.836 363.185 257.346 360.552 257.323 357.326V340.49L248.525 331.326H236.505H236.482ZM236.506 366.163H236.299C231.512 366.055 227.7 362.073 227.805 357.284V336.98C227.915 332.271 231.804 328.479 236.479 328.479H236.511H249.133C249.521 328.479 249.891 328.637 250.16 328.916L259.774 338.932C260.028 339.195 260.171 339.55 260.171 339.917V357.314C260.205 362.077 256.496 365.968 251.726 366.161L236.506 366.163Z" fill="#F7FCFB"/>
</g>
<path fill-rule="evenodd" clip-rule="evenodd" d="M258.736 341.713H253.507C250.033 341.704 247.209 338.872 247.209 335.402V329.881C247.209 329.095 247.847 328.457 248.633 328.457C249.418 328.457 250.056 329.095 250.056 329.881V335.402C250.056 337.308 251.607 338.86 253.511 338.866H258.736C259.522 338.866 260.159 339.504 260.159 340.29C260.159 341.075 259.522 341.713 258.736 341.713Z" fill="#F7FCFB"/>
<path fill-rule="evenodd" clip-rule="evenodd" d="M248.279 355.235H238.029C237.243 355.235 236.605 354.597 236.605 353.811C236.605 353.026 237.243 352.388 238.029 352.388H248.279C249.064 352.388 249.702 353.026 249.702 353.811C249.702 354.597 249.064 355.235 248.279 355.235Z" fill="#F7FCFB"/>
<path fill-rule="evenodd" clip-rule="evenodd" d="M244.397 348.114H238.027C237.241 348.114 236.604 347.476 236.604 346.69C236.604 345.904 237.241 345.267 238.027 345.267H244.397C245.183 345.267 245.82 345.904 245.82 346.69C245.82 347.476 245.183 348.114 244.397 348.114Z" fill="#F7FCFB"/>
<rect x="303.66" y="304.66" width="85.5534" height="85.5534" rx="30" fill="#F7FCFB" fill-opacity="0.3"/>
<path d="M365.755 346.773C365.439 346.346 364.975 346.13 364.378 346.13H364.331C364.022 346.135 363.687 346.138 363.274 346.138C363.033 346.138 362.791 346.137 362.546 346.137C362.527 346.136 362.509 346.136 362.49 346.136C362.339 344.483 361.957 342.909 361.349 341.45C360.743 339.995 359.899 338.615 358.833 337.34C358.855 337.319 358.876 337.298 358.898 337.276C359.38 336.803 359.835 336.355 360.297 335.893C360.833 335.355 360.864 334.581 360.371 334.052C360.12 333.786 359.792 333.64 359.444 333.64C359.095 333.64 358.751 333.788 358.474 334.057C358.077 334.444 357.654 334.868 357.178 335.351C357.123 335.409 357.067 335.466 357.013 335.523C355.731 334.457 354.352 333.613 352.901 333.009C351.445 332.402 349.875 332.02 348.225 331.87V331.831C348.223 331.21 348.222 330.623 348.231 330.03C348.236 329.753 348.199 329.514 348.118 329.3C348.013 329.021 347.834 328.787 347.588 328.605L347.387 328.457H346.46L346.26 328.605C345.601 329.093 345.613 329.798 345.617 330.03C345.628 330.621 345.626 331.225 345.623 331.808C345.623 331.821 345.623 331.836 345.623 331.85C343.928 332.05 342.304 332.485 340.785 333.147C340.161 333.418 338.571 334.177 336.843 335.526C336.795 335.477 336.748 335.429 336.701 335.38L336.516 335.194C336.138 334.813 335.747 334.419 335.353 334.037C335.087 333.78 334.752 333.638 334.411 333.638C334.069 333.638 333.739 333.78 333.491 334.037C333.012 334.534 333.01 335.287 333.488 335.829C333.56 335.911 333.632 335.981 333.695 336.043C333.72 336.067 333.744 336.09 333.768 336.115H333.77L333.771 336.117C334.178 336.524 334.585 336.931 335 337.345C333.939 338.61 333.096 339.988 332.491 341.449C331.889 342.904 331.507 344.479 331.354 346.136C331.336 346.136 331.319 346.136 331.301 346.137C331.057 346.137 330.815 346.138 330.573 346.138C330.161 346.138 329.826 346.135 329.518 346.13H329.469C328.872 346.13 328.408 346.346 328.092 346.773L327.943 346.974V347.901L328.092 348.101C328.408 348.528 328.871 348.744 329.469 348.744H329.517C329.819 348.738 330.145 348.736 330.545 348.736C330.79 348.736 331.038 348.736 331.287 348.738C331.31 348.738 331.333 348.738 331.356 348.738C331.507 350.391 331.889 351.964 332.497 353.424C333.102 354.878 333.945 356.255 335.007 357.525C334.997 357.535 334.986 357.546 334.976 357.557C334.475 358.054 334.002 358.524 333.523 359.01C333.006 359.534 332.986 360.297 333.477 360.823C333.728 361.089 334.058 361.235 334.411 361.235C334.763 361.235 335.081 361.097 335.343 360.845C335.734 360.471 336.124 360.083 336.499 359.691C336.61 359.575 336.719 359.456 336.824 359.338C338.109 360.409 339.492 361.256 340.944 361.861C342.399 362.468 343.97 362.851 345.623 363.004C345.623 363.023 345.623 363.04 345.623 363.059C345.626 363.674 345.628 364.256 345.617 364.843C345.606 365.465 345.823 365.945 346.26 366.269L346.46 366.418H347.389L347.59 366.268C348.026 365.943 348.241 365.464 348.231 364.844C348.22 364.261 348.222 363.684 348.224 363.074C348.224 363.051 348.224 363.027 348.224 363.004C349.876 362.855 351.45 362.472 352.91 361.864C354.364 361.258 355.742 360.414 357.016 359.35C357.046 359.38 357.076 359.411 357.106 359.441C357.572 359.913 358.012 360.358 358.468 360.81C358.744 361.085 359.089 361.235 359.439 361.235C359.757 361.235 360.066 361.111 360.308 360.884C360.565 360.644 360.709 360.328 360.719 359.994C360.729 359.637 360.584 359.282 360.311 358.994C360.079 358.75 359.84 358.515 359.61 358.288L359.514 358.194C359.288 357.972 359.059 357.749 358.834 357.53C359.902 356.249 360.747 354.867 361.352 353.412C361.957 351.957 362.339 350.388 362.489 348.738C362.508 348.738 362.527 348.738 362.545 348.738C362.79 348.737 363.032 348.736 363.273 348.736C363.685 348.736 364.021 348.739 364.328 348.744H364.376C364.972 348.744 365.435 348.529 365.753 348.104L365.904 347.903V346.974L365.755 346.773H365.755ZM360.011 350.328C359.395 353.111 357.933 355.586 355.783 357.489C353.631 359.394 351.004 360.532 348.187 360.783C347.757 360.821 347.326 360.84 346.904 360.84C344.298 360.84 341.826 360.098 339.559 358.632C334.999 355.685 332.635 349.944 333.809 344.669C334.215 342.851 334.917 341.212 335.897 339.797C336.45 339.001 337.418 337.82 338.895 336.714C339.998 335.89 341.249 335.22 342.514 334.776C343.684 334.365 344.906 334.12 346.145 334.049C346.396 334.034 346.652 334.027 346.905 334.027C347.795 334.027 348.704 334.119 349.605 334.302C353.138 335.017 356.173 337.085 358.149 340.123C360.131 343.17 360.792 346.794 360.011 350.328Z" fill="#F7FCFB"/>
<path d="M347.762 349.658H347.725C347.484 349.654 347.235 349.65 346.986 349.65C346.809 349.65 346.647 349.652 346.494 349.656C346.337 349.319 346.17 348.987 346.009 348.665C345.933 348.515 345.857 348.364 345.783 348.214C345.756 348.158 345.727 348.1 345.702 348.048C345.739 348.007 345.782 347.96 345.822 347.917C346.008 347.717 346.194 347.518 346.381 347.318C346.728 346.947 347.086 346.564 347.436 346.182C348.017 345.548 348.025 344.687 347.456 344.135C347.182 343.869 346.851 343.728 346.5 343.728C346.222 343.728 345.802 343.82 345.373 344.26C345.29 344.345 345.213 344.43 345.138 344.512C345.096 344.558 345.054 344.604 345.011 344.65C344.645 345.042 344.278 345.433 343.953 345.781L343.666 345.687L342.822 345.413C342.763 345.161 342.697 344.884 342.623 344.607C342.435 343.902 341.892 343.448 341.239 343.448C341.125 343.448 341.009 343.462 340.896 343.491C340.117 343.688 339.702 344.417 339.887 345.265C339.96 345.599 340.038 345.932 340.103 346.21C340.069 346.249 340.035 346.287 340.001 346.325C339.723 346.635 339.479 346.908 339.233 347.17C338.339 347.102 337.447 347.018 336.673 346.943C336.595 346.936 336.518 346.932 336.444 346.932C335.616 346.932 335.032 347.424 334.957 348.185C334.914 348.621 335.048 349.018 335.335 349.304C335.589 349.557 335.943 349.708 336.386 349.753C336.504 349.765 336.622 349.777 336.74 349.79C337.35 349.853 337.981 349.918 338.616 349.943C338.914 349.955 338.976 349.99 338.986 349.997C338.986 349.997 339.018 350.029 339.053 350.149C339.154 350.493 339.302 350.805 339.458 351.105C339.42 351.118 339.381 351.131 339.341 351.145C339.235 351.179 339.127 351.215 339.017 351.252C338.363 351.481 337.991 351.984 337.995 352.632C338.001 353.417 338.608 354.009 339.407 354.009C339.572 354.009 339.738 353.983 339.902 353.932C340.207 353.838 340.509 353.734 340.803 353.632C341.217 354.183 341.768 354.56 342.448 354.758C342.45 354.788 342.452 354.818 342.455 354.848C342.492 355.366 342.528 355.855 342.568 356.357C342.648 357.368 343.335 357.821 343.98 357.821C344.027 357.821 344.075 357.819 344.124 357.815C344.942 357.739 345.447 357.074 345.382 356.161C345.37 355.995 345.359 355.829 345.348 355.663C345.316 355.203 345.284 354.728 345.239 354.255C346.023 353.864 346.561 353.269 346.846 352.479C346.959 352.479 347.071 352.479 347.182 352.479C347.408 352.479 347.593 352.478 347.766 352.475C348.242 352.466 348.64 352.307 348.918 352.012C349.166 351.75 349.294 351.398 349.28 351.019C349.25 350.231 348.627 349.671 347.762 349.658ZM344.329 352.393C344.127 352.501 343.923 352.608 343.714 352.698C343.545 352.771 343.379 352.807 343.223 352.807C342.864 352.807 342.556 352.616 342.363 352.241C341.853 351.249 341.367 350.244 340.88 349.24C340.814 349.102 340.795 348.941 340.776 348.868C340.792 348.292 341.08 348.011 341.498 347.809C341.83 347.65 342.157 347.453 342.501 347.453C342.68 347.453 342.864 347.506 343.056 347.645C343.199 347.749 343.319 347.912 343.401 348.072C343.879 349.016 344.351 349.964 344.811 350.917C345.118 351.55 344.943 352.065 344.329 352.393Z" fill="#F7FCFB"/>
<path d="M358.043 350.248C357.943 349.603 357.634 348.979 357.124 348.39C357.396 347.641 357.467 346.941 357.336 346.302C357.168 345.486 356.67 344.807 355.895 344.338C355.391 344.032 354.816 343.871 354.232 343.871C353.241 343.871 352.32 344.322 351.705 345.109C351.152 345.817 350.926 346.62 351.051 347.433C351.15 348.07 351.458 348.697 351.968 349.302C351.692 350.043 351.62 350.744 351.754 351.391C351.923 352.212 352.423 352.895 353.199 353.366C353.701 353.67 354.275 353.831 354.859 353.831C355.851 353.831 356.774 353.38 357.39 352.592C357.946 351.882 358.172 351.072 358.043 350.248ZM353.103 347.043C353.117 346.427 353.621 345.934 354.236 345.934H354.237C354.867 345.935 355.374 346.454 355.367 347.091C355.362 347.712 354.848 348.224 354.238 348.224C354.229 348.224 354.219 348.224 354.21 348.224C353.577 348.208 353.088 347.687 353.103 347.043ZM354.859 351.767H354.853C354.229 351.764 353.716 351.235 353.722 350.605C353.729 349.995 354.231 349.49 354.845 349.475C354.853 349.475 354.862 349.475 354.87 349.475C355.48 349.475 355.993 349.993 355.995 350.617C355.997 351.25 355.486 351.767 354.859 351.767Z" fill="#F7FCFB"/>
<path d="M349.943 336.837C349.291 336.178 348.43 335.815 347.519 335.815C345.646 335.815 344.112 337.338 344.1 339.211C344.094 340.134 344.445 340.999 345.088 341.647C345.73 342.294 346.591 342.652 347.512 342.653H347.518C349.387 342.653 350.922 341.136 350.941 339.272C350.951 338.361 350.596 337.497 349.943 336.837ZM347.522 340.593H347.518C346.772 340.593 346.149 339.968 346.157 339.226C346.166 338.497 346.774 337.897 347.51 337.893H347.517C348.248 337.893 348.856 338.484 348.874 339.214C348.893 339.956 348.271 340.591 347.522 340.593Z" fill="#F7FCFB"/>
<rect x="-1" y="406.214" width="85.5534" height="85.5534" rx="30" fill="#F7FCFB" fill-opacity="0.3"/>
<path fill-rule="evenodd" clip-rule="evenodd" d="M41.7747 444.514C39.2503 444.514 37.1985 446.567 37.1985 449.092C37.1985 451.614 39.2503 453.666 41.7747 453.666C44.2991 453.666 46.3528 451.614 46.3528 449.092C46.3528 446.567 44.2991 444.514 41.7747 444.514ZM41.7749 456.513C37.6808 456.513 34.3516 453.184 34.3516 449.092C34.3516 444.998 37.6808 441.667 41.7749 441.667C45.869 441.667 49.2001 444.998 49.2001 449.092C49.2001 453.184 45.869 456.513 41.7749 456.513Z" fill="#F7FCFB"/>
<mask id="mask5_261_2479" style="mask-type:luminance" maskUnits="userSpaceOnUse" x="22" y="433" width="39" height="32">
<path fill-rule="evenodd" clip-rule="evenodd" d="M22.7949 433.806H60.7558V464.375H22.7949V433.806Z" fill="white"/>
</mask>
<g mask="url(#mask5_261_2479)">
<path fill-rule="evenodd" clip-rule="evenodd" d="M25.7755 449.09C29.3059 456.889 35.2525 461.526 41.7761 461.528C48.2997 461.526 54.2463 456.889 57.7767 449.09C54.2463 441.293 48.2997 436.656 41.7761 436.654C35.2544 436.656 29.3059 441.293 25.7755 449.09ZM41.7788 464.375H41.7712H41.7693C33.919 464.37 26.8696 458.867 22.9102 449.652C22.7565 449.293 22.7565 448.887 22.9102 448.528C26.8696 439.315 33.9209 433.813 41.7693 433.807C41.7731 433.805 41.7731 433.805 41.775 433.807C41.7788 433.805 41.7788 433.805 41.7807 433.807C49.6311 433.813 56.6805 439.315 60.6398 448.528C60.7955 448.887 60.7955 449.293 60.6398 449.652C56.6824 458.867 49.6311 464.37 41.7807 464.375H41.7788Z" fill="#F7FCFB"/>
</g>
<rect x="100.553" y="406.214" width="85.5534" height="85.5534" rx="30" fill="#F7FCFB" fill-opacity="0.3"/>
<path d="M138.289 430.01C138.709 430.01 139.129 430.01 139.549 430.01C139.629 430.035 139.706 430.07 139.787 430.084C140.858 430.273 141.797 430.727 142.608 431.454C142.864 431.683 143.138 431.893 143.415 432.122C143.451 432.082 143.556 431.965 143.661 431.849C144.338 431.101 145.159 430.572 146.121 430.269C146.446 430.167 146.781 430.095 147.111 430.01C147.532 430.01 147.951 430.01 148.372 430.01C148.441 430.031 148.51 430.061 148.582 430.074C150.933 430.489 152.454 431.851 153.156 434.122C153.236 434.381 153.325 434.464 153.595 434.478C156.64 434.629 158.98 437.117 158.894 440.158C158.874 440.896 158.659 441.628 158.523 442.421C158.543 442.434 158.643 442.503 158.745 442.569C160.348 443.614 161.448 445.044 161.973 446.885C162.147 447.496 162.201 448.139 162.311 448.768V449.212C162.291 449.332 162.261 449.45 162.252 449.571C162.103 451.442 161.365 453.049 160.034 454.363C159.555 454.836 158.995 455.225 158.45 455.671C158.461 455.704 158.481 455.773 158.506 455.84C159.904 459.541 157.483 463.271 153.52 463.505C153.277 463.519 153.226 463.621 153.169 463.825C152.708 465.473 151.711 466.698 150.162 467.422C149.602 467.684 148.971 467.792 148.371 467.97H147.185C147.116 467.948 147.047 467.916 146.976 467.906C146.003 467.768 145.127 467.394 144.365 466.78C143.996 466.482 143.67 466.129 143.3 465.778C142.717 466.516 142.01 467.126 141.127 467.479C140.596 467.691 140.026 467.81 139.474 467.97H138.288C138.218 467.948 138.15 467.918 138.079 467.906C135.728 467.49 134.207 466.128 133.504 463.859C133.424 463.6 133.335 463.516 133.065 463.502C130.004 463.346 127.671 460.849 127.767 457.785C127.79 457.06 128.005 456.34 128.141 455.561C128.14 455.56 128.063 455.5 127.982 455.449C126.515 454.521 125.43 453.263 124.871 451.619C124.609 450.847 124.518 450.017 124.35 449.213C124.35 449.065 124.35 448.917 124.35 448.768C124.37 448.636 124.4 448.504 124.41 448.371C124.558 446.596 125.236 445.05 126.475 443.777C126.994 443.243 127.608 442.801 128.205 442.294C128.199 442.276 128.179 442.207 128.154 442.14C126.75 438.448 129.183 434.7 133.139 434.475C133.382 434.461 133.434 434.36 133.49 434.155C133.923 432.605 134.829 431.404 136.27 430.682C136.898 430.367 137.613 430.228 138.289 430.01ZM159.94 447.931C159.747 446.948 159.325 446.125 158.688 445.415C157.515 444.11 156.017 443.563 154.286 443.598V441.348C154.986 441.407 155.647 441.464 156.333 441.522C156.349 441.494 156.384 441.445 156.409 441.39C157.296 439.463 156.047 437.08 153.948 436.765C153.282 436.666 152.594 436.707 151.916 436.689C151.662 436.682 151.409 436.687 151.124 436.687C151.124 436.222 151.137 435.816 151.122 435.41C151.061 433.769 149.754 432.406 148.097 432.244C146.452 432.085 144.874 433.228 144.529 434.839C144.474 435.097 144.463 435.362 144.431 435.629C147.037 435.718 148.228 437.632 148.265 439.196C148.286 440.065 148.05 440.856 147.518 441.547C146.752 442.544 145.715 443.004 144.474 443.015V447.944H148.894C148.894 448.097 148.894 448.218 148.894 448.339C148.894 448.994 148.888 449.649 148.896 450.303C148.906 451.162 149.539 451.807 150.357 451.802C151.16 451.798 151.779 451.164 151.793 450.323C151.801 449.841 151.795 449.359 151.795 448.877C151.795 448.573 151.795 448.268 151.795 447.929H159.941L159.94 447.931ZM142.218 440.779C142.397 440.779 142.53 440.779 142.663 440.779C143.342 440.777 144.023 440.793 144.701 440.766C145.413 440.739 145.955 440.19 146.037 439.464C146.113 438.792 145.665 438.123 144.997 437.946C144.786 437.89 144.559 437.881 144.338 437.878C143.639 437.87 142.941 437.875 142.214 437.875C142.214 437.036 142.232 436.248 142.211 435.46C142.163 433.697 140.693 432.262 138.931 432.237C137.092 432.21 135.592 433.644 135.535 435.488C135.523 435.879 135.534 436.27 135.534 436.691C134.765 436.691 134.05 436.682 133.336 436.693C132.32 436.709 131.463 437.089 130.788 437.854C129.888 438.873 129.698 440.516 130.343 441.521C131.023 441.465 131.692 441.41 132.389 441.353V443.604C131.055 443.574 129.83 443.879 128.765 444.689C127.693 445.504 127.012 446.567 126.719 447.907H132.614C132.628 445.415 134.555 444.071 136.236 444.055C137.105 444.046 137.892 444.297 138.576 444.839C139.563 445.62 139.992 446.67 140.006 447.907H142.218V440.781V440.779ZM126.748 450.161C126.94 451.094 127.354 451.869 127.952 452.542C129.125 453.861 130.633 454.42 132.387 454.383V456.631C131.69 456.573 131.021 456.518 130.326 456.461C130.31 456.489 130.275 456.54 130.25 456.594C129.363 458.519 130.617 460.905 132.715 461.215C133.417 461.318 134.142 461.273 134.858 461.292C135.074 461.298 135.29 461.293 135.535 461.293C135.535 461.747 135.524 462.141 135.537 462.534C135.594 464.191 136.853 465.534 138.528 465.732C140.086 465.916 141.629 464.887 142.069 463.352C142.161 463.031 142.187 462.691 142.245 462.351C139.677 462.266 138.438 460.399 138.396 458.784C138.373 457.914 138.609 457.123 139.142 456.432C139.909 455.439 140.944 454.972 142.191 454.966V450.145H137.768C137.768 449.982 137.768 449.848 137.768 449.716C137.768 449.037 137.782 448.356 137.761 447.678C137.737 446.877 137.067 446.254 136.285 446.273C135.503 446.292 134.888 446.902 134.871 447.698C134.858 448.339 134.868 448.982 134.867 449.624C134.867 449.791 134.867 449.959 134.867 450.16H126.748V450.161ZM154.027 450.18C154.035 451.213 153.727 452.115 153.025 452.86C152.322 453.607 151.449 453.995 150.427 454.023C149.558 454.047 148.772 453.781 148.088 453.242C147.101 452.463 146.667 451.415 146.654 450.176H144.438V457.204C143.616 457.204 142.84 457.193 142.065 457.208C141.239 457.224 140.625 457.84 140.613 458.634C140.602 459.428 141.242 460.081 142.069 460.103C142.625 460.117 143.18 460.107 143.736 460.107C143.966 460.107 144.195 460.107 144.445 460.107C144.445 460.95 144.427 461.74 144.449 462.529C144.497 464.272 145.957 465.707 147.7 465.745C149.557 465.785 151.067 464.35 151.125 462.484C151.137 462.095 151.127 461.704 151.127 461.29C151.929 461.29 152.67 461.31 153.409 461.286C155.76 461.21 157.316 458.867 156.465 456.714C156.377 456.494 156.289 456.424 156.036 456.464C155.538 456.542 155.031 456.569 154.526 456.595C154.438 456.599 154.267 456.497 154.265 456.439C154.247 455.765 154.253 455.089 154.253 454.377C155.606 454.409 156.819 454.104 157.877 453.306C158.926 452.515 159.608 451.487 159.912 450.181H154.027V450.18Z" fill="#F7FCFB"/>
<rect x="202.107" y="406.214" width="85.5534" height="85.5534" rx="30" fill="#F7FCFB" fill-opacity="0.3"/>
<path d="M261.953 441.366C261.934 441.3 261.916 441.234 261.898 441.168C261.857 441.021 261.816 440.87 261.766 440.72C261.531 440.012 261.091 439.424 260.496 439.019C259.904 438.617 259.172 438.405 258.378 438.405H257.724C255.426 438.405 253.129 438.404 250.83 438.404C245.078 438.404 240.694 438.406 236.615 438.411C236.405 438.411 236.281 438.359 236.139 438.212C235.657 437.714 235.16 437.218 234.678 436.738C234.485 436.546 234.292 436.355 234.1 436.163C233.855 435.917 233.611 435.67 233.366 435.424C232.834 434.888 232.285 434.333 231.734 433.796C231.055 433.133 230.186 432.768 229.286 432.768C228.703 432.768 228.122 432.926 227.607 433.224C226.681 433.76 226.071 434.66 225.932 435.693C225.79 436.757 226.161 437.826 226.951 438.626C227.764 439.45 228.596 440.281 229.402 441.085C230.359 442.041 231.35 443.03 232.313 444.012C233.104 444.819 234.049 445.211 235.203 445.211H235.206C239.61 445.206 243.984 445.205 247.303 445.205H252.539C254.284 445.206 256.03 445.206 257.775 445.206H258.407C258.49 445.206 258.581 445.205 258.673 445.201C260.213 445.128 261.455 444.12 261.839 442.634C261.861 442.549 261.887 442.465 261.914 442.375C261.927 442.332 261.94 442.289 261.952 442.247L261.965 442.203V441.409L261.953 441.366ZM235.279 442.96H235.27C234.723 442.96 234.314 442.791 233.942 442.413C232.754 441.204 231.537 439.987 230.359 438.81C229.792 438.243 229.204 437.656 228.628 437.077C228.138 436.584 228.065 435.978 228.438 435.492C228.655 435.21 228.956 435.055 229.286 435.055C229.575 435.055 229.86 435.179 230.088 435.405C230.909 436.221 231.742 437.056 232.546 437.864C232.886 438.205 233.227 438.547 233.567 438.888C233.701 439.022 233.837 439.156 233.968 439.285C234.279 439.591 234.599 439.907 234.896 440.228C235.204 440.561 235.573 440.717 236.055 440.717H236.059C238.834 440.711 241.558 440.711 243.859 440.711H254.377C255.964 440.711 257.246 440.711 258.413 440.712C258.821 440.713 259.155 440.838 259.378 441.073C259.58 441.287 259.676 441.581 259.659 441.924C259.634 442.405 259.267 442.829 258.806 442.911C258.607 442.947 258.396 442.952 258.197 442.952C255.659 442.954 253.174 442.954 250.867 442.954H246.738C245.783 442.954 244.828 442.954 243.873 442.954C242.918 442.953 241.962 442.953 241.007 442.953C238.697 442.953 236.931 442.956 235.279 442.961V442.96Z" fill="#F7FCFB"/>
<path d="M258.041 437.03C258.022 437.031 258.003 437.031 257.984 437.031C257.36 437.031 256.893 436.551 256.85 435.864C256.785 434.849 256.116 434.217 255.104 434.217C252.926 434.216 250.748 434.216 248.569 434.216C246.391 434.216 244.212 434.216 242.034 434.217C241.024 434.217 240.356 434.849 240.289 435.864C240.245 436.551 239.778 437.031 239.155 437.031C239.137 437.031 239.118 437.031 239.099 437.03C238.427 436.999 237.978 436.465 238.007 435.731C238.043 434.82 238.394 433.945 238.996 433.266C239.598 432.588 240.425 432.134 241.326 431.986C241.348 431.983 241.386 431.969 241.423 431.955C241.451 431.944 241.48 431.933 241.508 431.924L241.556 431.908H255.572L255.61 431.918L255.781 431.962C255.903 431.994 256.026 432.026 256.148 432.057C257.862 432.493 259.061 433.969 259.132 435.731C259.161 436.464 258.712 436.999 258.041 437.03Z" fill="#F7FCFB"/>
<path d="M242.473 461.997C242.313 461.185 241.902 460.496 241.285 460.004C240.672 459.514 239.901 459.255 239.056 459.255C239.011 459.255 238.967 459.256 238.923 459.257C237.344 459.308 235.954 460.627 235.758 462.26C235.663 463.053 235.855 463.857 236.299 464.527C236.741 465.195 237.408 465.688 238.177 465.917C238.253 465.939 238.331 465.97 238.413 466.003C238.456 466.02 238.498 466.037 238.54 466.053L238.594 466.073H239.698L239.756 466.05C239.783 466.038 239.809 466.026 239.836 466.014C239.87 465.998 239.906 465.982 239.928 465.977C241.712 465.546 242.83 463.798 242.473 461.997ZM240.563 462.687C240.543 463.452 239.901 464.08 239.151 464.08C239.133 464.08 239.114 464.079 239.095 464.079C238.323 464.046 237.705 463.392 237.724 462.626C237.743 461.859 238.385 461.234 239.137 461.234C239.155 461.234 239.173 461.234 239.191 461.235C239.963 461.266 240.584 461.923 240.563 462.687Z" fill="#F7FCFB"/>
<path d="M261.323 461.997C261.162 461.185 260.751 460.496 260.135 460.004C259.522 459.514 258.751 459.255 257.905 459.255C257.861 459.255 257.817 459.256 257.773 459.257C256.193 459.308 254.803 460.627 254.608 462.26C254.513 463.053 254.705 463.857 255.148 464.527C255.591 465.195 256.258 465.688 257.027 465.917C257.102 465.939 257.18 465.97 257.263 466.003C257.305 466.02 257.347 466.037 257.39 466.053L257.444 466.073H258.547L258.605 466.05C258.632 466.038 258.658 466.026 258.686 466.014C258.72 465.998 258.756 465.982 258.777 465.977C260.561 465.546 261.679 463.798 261.323 461.997ZM257.993 464.079H257.992C257.212 464.079 256.562 463.419 256.573 462.638C256.579 462.253 256.742 461.902 256.999 461.647C257.257 461.393 257.609 461.235 257.993 461.235C258.774 461.235 259.425 461.895 259.412 462.675C259.4 463.444 258.758 464.079 257.993 464.079H257.993Z" fill="#F7FCFB"/>
<path d="M254.931 457.846C255.066 457.981 255.476 458.392 255.282 459.015C255.15 459.443 254.851 459.722 254.419 459.824C254.339 459.842 254.259 459.851 254.181 459.851C253.782 459.851 253.495 459.609 253.313 459.427C252.52 458.632 251.726 457.837 250.933 457.042L250.205 456.313L249.871 455.978C249.452 455.559 249.034 455.139 248.614 454.72C248.6 454.706 248.586 454.693 248.572 454.679C248.547 454.702 248.524 454.725 248.501 454.748C247.988 455.262 247.475 455.776 246.962 456.289C245.935 457.319 244.872 458.384 243.825 459.429C243.556 459.697 243.229 459.844 242.904 459.844C242.499 459.844 242.147 459.623 241.939 459.236C241.618 458.638 241.924 458.137 242.238 457.822C243.717 456.337 245.214 454.836 246.688 453.363C246.782 453.268 246.878 453.18 246.994 453.074C246.952 453.044 246.913 453.01 246.875 452.973C245.697 451.798 244.502 450.602 243.347 449.444L242.198 448.293C242.068 448.163 241.672 447.767 241.851 447.158C241.98 446.721 242.273 446.435 242.7 446.332C242.784 446.311 242.869 446.301 242.952 446.301C243.355 446.301 243.652 446.546 243.865 446.76C244.562 447.46 245.261 448.159 245.96 448.859C246.78 449.681 247.629 450.531 248.463 451.369C248.499 451.405 248.531 451.442 248.561 451.481C248.593 451.45 248.623 451.421 248.652 451.393C250.042 450.001 251.686 448.357 253.327 446.712C253.502 446.535 253.782 446.301 254.176 446.301C254.279 446.301 254.383 446.317 254.488 446.349C254.925 446.481 255.208 446.778 255.306 447.207C255.428 447.735 255.129 448.109 254.894 448.344C254.338 448.901 253.782 449.458 253.225 450.016C252.264 450.977 251.271 451.972 250.292 452.949C250.244 452.996 250.194 453.037 250.143 453.074C250.181 453.101 250.219 453.131 250.254 453.166C251.398 454.306 252.557 455.468 253.679 456.591C254.096 457.01 254.514 457.428 254.931 457.846Z" fill="#F7FCFB"/>
<rect x="303.66" y="406.214" width="85.5534" height="85.5534" rx="30" fill="#F7FCFB" fill-opacity="0.3"/>
<path fill-rule="evenodd" clip-rule="evenodd" d="M339.199 433.576C334.133 433.576 331.971 436.151 331.971 442.183V455.791C331.971 461.346 335.038 464.405 340.607 464.405H354.185C359.741 464.405 362.799 461.346 362.799 455.791V455.786L362.848 447.123C362.848 441.192 360.814 438.88 355.588 438.88H350.65C348.995 438.879 347.414 438.088 346.419 436.766L344.826 434.647C344.326 433.976 343.525 433.578 342.687 433.576H339.199ZM354.185 467.022H340.607C333.667 467.022 329.354 462.718 329.354 455.791V442.183C329.354 434.735 332.667 430.959 339.199 430.959H342.689C344.348 430.961 345.929 431.753 346.92 433.077L348.51 435.192C349.014 435.862 349.815 436.261 350.652 436.263H355.588C362.327 436.263 365.465 439.716 365.465 447.13L365.417 455.796C365.415 462.719 361.112 467.022 354.185 467.022Z" fill="#F7FCFB"/>
<path fill-rule="evenodd" clip-rule="evenodd" d="M355.03 454.885H339.79C339.067 454.885 338.481 454.299 338.481 453.576C338.481 452.854 339.067 452.268 339.79 452.268H355.03C355.753 452.268 356.339 452.854 356.339 453.576C356.339 454.299 355.753 454.885 355.03 454.885Z" fill="#F7FCFB"/>
</svg>
