<svg width="24" height="24" viewBox="0 0 24 24" fill="none" xmlns="http://www.w3.org/2000/svg">
<path d="M20.9933 7.98279C20.9834 7.94812 20.974 7.91346 20.9644 7.87879C20.9431 7.80146 20.9215 7.72146 20.8948 7.64246C20.7711 7.26946 20.5394 6.95979 20.2256 6.74646C19.9142 6.53479 19.5285 6.42279 19.1099 6.42279H18.7651C17.5545 6.42279 16.3442 6.42246 15.1333 6.42246C12.1027 6.42246 9.79297 6.42346 7.64394 6.42612C7.53346 6.42612 7.46824 6.39879 7.39336 6.32146C7.13946 6.05879 6.87724 5.79746 6.62333 5.54479C6.52184 5.44379 6.42034 5.34279 6.31918 5.24179C6.19007 5.11212 6.06129 4.98212 5.93217 4.85246C5.65198 4.56979 5.36247 4.27779 5.07262 3.99479C4.71456 3.64546 4.25667 3.45312 3.78281 3.45312C3.47533 3.45312 3.16918 3.53612 2.89797 3.69346C2.41013 3.97579 2.08867 4.45012 2.0158 4.99412C1.94059 5.55446 2.13626 6.11779 2.55256 6.53946C2.98083 6.97379 3.41942 7.41146 3.84371 7.83512C4.34818 8.33879 4.86997 8.85979 5.37744 9.37712C5.7944 9.80212 6.29223 10.0088 6.89986 10.0088H6.90153C9.22194 10.0061 11.5264 10.0058 13.2751 10.0058H16.0334C16.9532 10.0061 17.8726 10.0061 18.7921 10.0061H19.1252C19.1691 10.0061 19.2167 10.0058 19.2656 10.0035C20.0766 9.96479 20.7311 9.43379 20.9334 8.65079C20.9451 8.60612 20.9584 8.56179 20.9727 8.51446C20.9797 8.49212 20.9864 8.46946 20.993 8.44712L21 8.42412V8.00546L20.9933 7.98279ZM6.94013 8.82279H6.93547C6.64729 8.82279 6.43166 8.73379 6.23566 8.53446C5.61005 7.89779 4.9688 7.25646 4.34819 6.63646C4.04903 6.33746 3.73955 6.02812 3.43606 5.72346C3.17783 5.46379 3.13923 5.14412 3.3359 4.88812C3.45004 4.73946 3.60877 4.65779 3.78281 4.65779C3.93488 4.65779 4.08496 4.72346 4.20509 4.84246C4.63803 5.27246 5.07662 5.71246 5.50024 6.13779C5.6796 6.31779 5.85896 6.49779 6.03832 6.67746C6.10854 6.74779 6.18041 6.81846 6.24963 6.88679C6.41302 7.04779 6.58174 7.21412 6.73847 7.38346C6.90086 7.55912 7.09487 7.64079 7.34877 7.64079H7.3511C8.81329 7.63812 10.2482 7.63779 11.4605 7.63779H17.0021C17.838 7.63779 18.5135 7.63812 19.1282 7.63846C19.3431 7.63879 19.5192 7.70479 19.6366 7.82879C19.7431 7.94112 19.794 8.09613 19.7847 8.27679C19.7714 8.53013 19.5784 8.75379 19.3355 8.79712C19.2307 8.81579 19.1192 8.81846 19.0144 8.81846C17.6773 8.81946 16.3682 8.81946 15.1529 8.81946H12.9776C12.4744 8.81946 11.971 8.81946 11.4678 8.81946C10.9647 8.81912 10.4612 8.81913 9.95802 8.81913C8.74075 8.81913 7.81032 8.82046 6.94013 8.82312V8.82279Z" fill="#010D0A"/>
<path d="M18.9315 5.69833C18.9215 5.699 18.9115 5.699 18.9015 5.699C18.5728 5.699 18.3268 5.44633 18.3039 5.084C18.2696 4.54933 17.9172 4.21667 17.3844 4.21667C16.2367 4.216 15.089 4.216 13.9413 4.216C12.7935 4.216 11.6458 4.216 10.4984 4.21667C9.96599 4.21667 9.61392 4.54933 9.57898 5.08433C9.55568 5.44633 9.30977 5.699 8.98132 5.699C8.97167 5.699 8.96169 5.699 8.95171 5.69833C8.59764 5.682 8.36137 5.40067 8.37668 5.014C8.39565 4.53433 8.58067 4.073 8.8978 3.71567C9.2146 3.35833 9.65052 3.119 10.1251 3.04133C10.137 3.03933 10.157 3.032 10.1763 3.02467C10.1913 3.019 10.2063 3.01333 10.2212 3.00833L10.2465 3H17.6307L17.651 3.00533L17.7408 3.02833C17.8054 3.04533 17.8699 3.062 17.9342 3.07833C18.8373 3.30833 19.4689 4.086 19.5062 5.014C19.5218 5.40033 19.2852 5.682 18.9315 5.69833Z" fill="#010D0A"/>
<path d="M10.7306 18.8523C10.6461 18.4246 10.4295 18.0616 10.1047 17.8023C9.78158 17.5443 9.3756 17.408 8.93002 17.408C8.90673 17.408 8.88343 17.4083 8.86014 17.409C8.02822 17.4356 7.29579 18.1306 7.19263 18.9913C7.14271 19.4086 7.24387 19.8326 7.47748 20.1853C7.71075 20.5373 8.06216 20.7973 8.46714 20.9176C8.50707 20.9293 8.548 20.9456 8.59159 20.963C8.61389 20.972 8.63618 20.981 8.65848 20.9893L8.68676 21H9.26845L9.29873 20.9876C9.31304 20.9816 9.32702 20.9753 9.34099 20.969C9.35929 20.9606 9.37793 20.952 9.38958 20.9493C10.3293 20.7223 10.9183 19.8013 10.7306 18.8523ZM9.72434 19.216C9.7137 19.6193 9.37527 19.95 8.98027 19.95C8.97062 19.95 8.96064 19.9496 8.95099 19.9493C8.54401 19.9323 8.21823 19.5873 8.22854 19.184C8.23853 18.78 8.57662 18.4506 8.97295 18.4506C8.9826 18.4506 8.99192 18.4506 9.00157 18.4513C9.40788 18.4673 9.73499 18.8133 9.72434 19.216Z" fill="#010D0A"/>
<path d="M20.6606 18.8523C20.5761 18.4246 20.3595 18.0616 20.0347 17.8023C19.7119 17.5443 19.3056 17.408 18.86 17.408C18.837 17.408 18.8134 17.4083 18.7905 17.409C17.9582 17.4356 17.2258 18.1306 17.1229 18.9913C17.0727 19.4086 17.1739 19.8326 17.4075 20.1853C17.6407 20.5373 17.9921 20.7973 18.3975 20.9176C18.4371 20.9293 18.4783 20.9456 18.5216 20.963C18.5439 20.972 18.5662 20.981 18.5885 20.9893L18.6171 21H19.1984L19.2287 20.9876C19.243 20.9816 19.257 20.9753 19.2713 20.969C19.2893 20.9606 19.3082 20.952 19.3196 20.9493C20.2593 20.7223 20.8483 19.8013 20.6606 18.8523ZM18.9066 19.9496H18.9059C18.495 19.9493 18.1525 19.6016 18.1585 19.1903C18.1615 18.9873 18.2474 18.8026 18.3828 18.6683C18.5186 18.5343 18.7039 18.451 18.9063 18.451C19.3179 18.451 19.6607 18.7986 19.654 19.2096C19.6477 19.615 19.3096 19.9496 18.9063 19.9496H18.9066Z" fill="#010D0A"/>
<path d="M17.2927 16.6658C17.3636 16.7368 17.5795 16.9531 17.4777 17.2814C17.4078 17.5068 17.2504 17.6541 17.0228 17.7074C16.9809 17.7171 16.9386 17.7221 16.8974 17.7221C16.6874 17.7221 16.536 17.5944 16.4401 17.4984C16.0222 17.0794 15.6042 16.6608 15.1862 16.2418L14.8029 15.8581L14.6269 15.6814C14.4062 15.4604 14.1856 15.2394 13.9647 15.0188C13.9573 15.0114 13.95 15.0044 13.9424 14.9971C13.9294 15.0091 13.9171 15.0214 13.9051 15.0334C13.6345 15.3041 13.3643 15.5748 13.0941 15.8454C12.553 16.3878 11.993 16.9488 11.4413 17.4994C11.2998 17.6408 11.1275 17.7184 10.9564 17.7184C10.7428 17.7184 10.5574 17.6018 10.4479 17.3978C10.2786 17.0828 10.4399 16.8188 10.6053 16.6528C11.3847 15.8704 12.1733 15.0798 12.9497 14.3034C12.9993 14.2538 13.0499 14.2071 13.1111 14.1514C13.0891 14.1354 13.0682 14.1178 13.0482 14.0981C12.4279 13.4791 11.7983 12.8488 11.1897 12.2391L10.584 11.6324C10.5155 11.5641 10.3072 11.3554 10.4013 11.0348C10.4692 10.8041 10.624 10.6534 10.8486 10.5991C10.8932 10.5881 10.9378 10.5828 10.9814 10.5828C11.194 10.5828 11.3501 10.7121 11.4625 10.8248C11.8299 11.1938 12.198 11.5621 12.566 11.9308C12.9983 12.3638 13.4455 12.8118 13.8848 13.2531C13.9038 13.2721 13.9207 13.2918 13.9367 13.3121C13.9537 13.2958 13.9693 13.2808 13.9843 13.2658C14.717 12.5324 15.5829 11.6661 16.4474 10.7994C16.54 10.7064 16.6874 10.5831 16.895 10.5831C16.9489 10.5831 17.0042 10.5914 17.0594 10.6081C17.2894 10.6778 17.4384 10.8341 17.4903 11.0604C17.5546 11.3388 17.3972 11.5354 17.2734 11.6594C16.9802 11.9528 16.687 12.2464 16.3939 12.5401C15.8877 13.0468 15.3646 13.5708 14.8485 14.0854C14.8235 14.1104 14.7969 14.1321 14.7703 14.1514C14.7903 14.1654 14.8099 14.1814 14.8285 14.2001C15.4312 14.8004 16.0421 15.4124 16.6328 16.0044C16.8528 16.2251 17.0727 16.4454 17.2927 16.6658Z" fill="#010D0A"/>
</svg>
