<svg width="24" height="24" viewBox="0 0 24 24" fill="none" xmlns="http://www.w3.org/2000/svg">
<path d="M9.34377 2C9.56528 2 9.78642 2 10.0079 2C10.0498 2.01321 10.0906 2.0317 10.1332 2.03925C10.6974 2.13849 11.1925 2.37811 11.6196 2.76075C11.7543 2.88151 11.8985 2.99208 12.0449 3.11283C12.0638 3.0917 12.1189 3.03019 12.1743 2.96906C12.5309 2.57472 12.9634 2.29623 13.4702 2.1366C13.6415 2.08264 13.8181 2.04491 13.9921 2C14.2136 2 14.4347 2 14.6562 2C14.6928 2.01132 14.7291 2.02717 14.7668 2.03396C16.0057 2.25245 16.8068 2.97019 17.1766 4.16642C17.2189 4.30302 17.2657 4.34679 17.4083 4.35396C19.0121 4.43358 20.2453 5.74453 20.2 7.34679C20.1891 7.73547 20.0758 8.12113 20.0045 8.53887C20.0147 8.54566 20.0675 8.58226 20.1211 8.61698C20.9657 9.16755 21.5457 9.92075 21.8219 10.8909C21.9136 11.2125 21.9423 11.5517 22 11.8826V12.117C21.9894 12.18 21.974 12.2423 21.9691 12.3057C21.8906 13.2917 21.5019 14.1381 20.8004 14.8306C20.5483 15.0796 20.2532 15.2849 19.966 15.5196C19.9717 15.537 19.9823 15.5732 19.9955 15.6087C20.7321 17.5589 19.4566 19.5238 17.3687 19.6472C17.2408 19.6547 17.2136 19.7083 17.1838 19.8155C16.9408 20.6838 16.4155 21.3294 15.5996 21.7109C15.3045 21.8491 14.9717 21.9057 14.6558 21.9996H14.0309C13.9943 21.9879 13.9581 21.9709 13.9208 21.9657C13.4083 21.8932 12.9468 21.6962 12.5453 21.3725C12.3506 21.2155 12.1789 21.0298 11.9842 20.8449C11.677 21.2336 11.3045 21.5547 10.8392 21.7408C10.5592 21.8525 10.2592 21.9151 9.9683 21.9996H9.3434C9.30679 21.9879 9.27094 21.9721 9.23321 21.9657C7.99472 21.7464 7.19358 21.0291 6.82302 19.8336C6.78075 19.697 6.73396 19.6528 6.5917 19.6457C4.97925 19.5634 3.74981 18.2479 3.80038 16.6336C3.81245 16.2513 3.92566 15.8725 3.99774 15.4619C3.99698 15.4611 3.9566 15.4298 3.91358 15.4026C3.14075 14.914 2.56943 14.2513 2.27472 13.3849C2.1366 12.9781 2.08868 12.5408 2 12.1174C2 12.0392 2 11.9611 2 11.883C2.01094 11.8132 2.02642 11.7438 2.03208 11.6736C2.10981 10.7385 2.46717 9.92415 3.11962 9.25321C3.39321 8.97208 3.7166 8.73887 4.03132 8.47208C4.0283 8.46264 4.01736 8.42642 4.00415 8.39094C3.26453 6.44566 4.54642 4.47094 6.63094 4.35245C6.75887 4.34528 6.78604 4.2917 6.81585 4.18415C7.04377 3.36717 7.52113 2.73434 8.28038 2.35396C8.61094 2.1883 8.98792 2.11509 9.34377 2ZM20.7509 11.4419C20.6491 10.9238 20.4272 10.4902 20.0913 10.1162C19.4736 9.42868 18.6842 9.14075 17.7721 9.15925V7.97359C18.1408 8.00491 18.4891 8.03472 18.8506 8.06528C18.8592 8.05057 18.8774 8.02453 18.8906 7.99585C19.3581 6.98038 18.7 5.72491 17.594 5.55925C17.243 5.50679 16.8808 5.52868 16.5234 5.51887C16.3898 5.51509 16.2562 5.51811 16.106 5.51811C16.106 5.27283 16.1128 5.05887 16.1049 4.84528C16.0728 3.98038 15.3845 3.26226 14.5113 3.17736C13.6449 3.09321 12.8136 3.69547 12.6317 4.54453C12.6026 4.68 12.5966 4.82 12.58 4.96038C13.9528 5.00717 14.5804 6.01585 14.6 6.83962C14.6109 7.29774 14.4864 7.71434 14.2064 8.07849C13.8026 8.60377 13.2562 8.84604 12.6026 8.8517V11.4487H14.9313C14.9313 11.5294 14.9313 11.5932 14.9313 11.657C14.9313 12.0019 14.9283 12.3468 14.9325 12.6917C14.9377 13.1442 15.2713 13.4838 15.7019 13.4815C16.1253 13.4792 16.4513 13.1453 16.4585 12.7019C16.4626 12.4483 16.4596 12.1943 16.4596 11.9404C16.4596 11.78 16.4596 11.6196 16.4596 11.4408H20.7513L20.7509 11.4419ZM11.414 7.67396C11.5083 7.67396 11.5785 7.67396 11.6487 7.67396C12.0064 7.67283 12.3649 7.68113 12.7223 7.66717C13.0974 7.65283 13.3826 7.3634 13.426 6.98075C13.466 6.62679 13.2302 6.27434 12.8781 6.18113C12.7668 6.1517 12.6472 6.14679 12.5309 6.14528C12.1626 6.14113 11.7947 6.14377 11.4121 6.14377C11.4121 5.70189 11.4215 5.28642 11.4102 4.87132C11.3849 3.94264 10.6106 3.18642 9.68226 3.17321C8.71321 3.15925 7.92302 3.91472 7.89321 4.88642C7.88679 5.09245 7.89245 5.29849 7.89245 5.52C7.48717 5.52 7.11057 5.51547 6.73434 5.52113C6.19925 5.52943 5.74792 5.72981 5.39208 6.13283C4.91811 6.66943 4.81774 7.53547 5.15774 8.06453C5.51585 8.03509 5.8683 8.00641 6.23547 7.97623V9.16226C5.53283 9.14642 4.88755 9.30717 4.32642 9.73396C3.76151 10.1634 3.40264 10.723 3.2483 11.4294H6.35396C6.36151 10.1162 7.3766 9.4083 8.26264 9.39962C8.72 9.39509 9.13509 9.52755 9.49547 9.81283C10.0151 10.2242 10.2411 10.7777 10.2487 11.4291H11.414V7.67509V7.67396ZM3.2634 12.617C3.36453 13.1083 3.58264 13.5166 3.89774 13.8709C4.51585 14.566 5.31019 14.8604 6.23472 14.8411V16.0253C5.86755 15.9951 5.51472 15.966 5.14868 15.9358C5.14 15.9509 5.12189 15.9774 5.10868 16.006C4.64151 17.02 5.30189 18.2774 6.40717 18.4404C6.77736 18.4951 7.15925 18.4709 7.53623 18.4811C7.65019 18.4842 7.76415 18.4815 7.89321 18.4815C7.89321 18.7208 7.88717 18.9287 7.89434 19.1355C7.92415 20.0087 8.58755 20.7162 9.47019 20.8204C10.2906 20.9174 11.1038 20.3751 11.3355 19.5664C11.3842 19.3974 11.3977 19.2181 11.4283 19.0389C10.0751 18.9943 9.42264 18.0109 9.40038 17.1596C9.3883 16.7015 9.51283 16.2845 9.79358 15.9208C10.1977 15.3974 10.7426 15.1513 11.4 15.1483V12.6083H9.06943C9.06943 12.5223 9.06943 12.4521 9.06943 12.3823C9.06943 12.0245 9.07698 11.666 9.06604 11.3087C9.05321 10.8864 8.7 10.5581 8.2883 10.5683C7.87623 10.5785 7.55208 10.9 7.5434 11.3189C7.53623 11.657 7.54151 11.9955 7.54113 12.334C7.54113 12.4219 7.54113 12.5102 7.54113 12.6162H3.2634V12.617ZM17.6358 12.6268C17.64 13.1709 17.4774 13.646 17.1079 14.0389C16.7374 14.4325 16.2774 14.637 15.7392 14.6517C15.2811 14.6642 14.8672 14.5242 14.5068 14.24C13.9868 13.8298 13.7581 13.2774 13.7513 12.6245H12.5834V16.3275C12.1506 16.3275 11.7419 16.3215 11.3332 16.3294C10.8985 16.3377 10.5747 16.6626 10.5687 17.0808C10.5626 17.4989 10.8996 17.8434 11.3355 17.8547C11.6283 17.8623 11.9211 17.8566 12.214 17.8566C12.3347 17.8566 12.4555 17.8566 12.5875 17.8566C12.5875 18.3011 12.5781 18.7174 12.5894 19.1328C12.6147 20.0513 13.3838 20.8072 14.3023 20.8272C15.2804 20.8483 16.0762 20.0921 16.1068 19.1094C16.1132 18.9042 16.1075 18.6981 16.1075 18.48C16.5302 18.48 16.9208 18.4906 17.3102 18.4781C18.5487 18.4377 19.3683 17.2034 18.92 16.0694C18.874 15.9532 18.8275 15.9162 18.6943 15.9374C18.4317 15.9789 18.1645 15.9928 17.8985 16.0064C17.8521 16.0087 17.7623 15.9547 17.7611 15.9245C17.7513 15.5691 17.7547 15.2132 17.7547 14.8377C18.4675 14.8551 19.1068 14.6943 19.6642 14.274C20.2166 13.857 20.5758 13.3155 20.7362 12.6275H17.6358V12.6268Z" fill="#010D0A"/>
</svg>
