<svg width="24" height="24" viewBox="0 0 24 24" fill="none" xmlns="http://www.w3.org/2000/svg">
<path d="M15.9595 17.7037C15.7794 17.5531 15.595 17.4113 15.3995 17.2612C15.3265 17.2055 15.2526 17.1489 15.1777 17.0904C15.2516 17.0403 15.3508 16.9711 15.464 16.8873C15.9328 16.5397 17.1792 15.6157 17.888 13.9919C17.8922 13.982 18.3006 13.029 18.2201 11.8529H18.2206L18.2192 11.8047C18.1911 10.9429 17.9595 10.0872 17.5488 9.32977C17.189 8.6659 16.6837 8.06799 16.0863 7.59968C16.0746 7.58752 16.0615 7.57676 16.046 7.56412C15.8379 7.39336 15.6245 7.23336 15.4177 7.0785C15.3504 7.02751 15.2839 6.97745 15.2189 6.92832C15.3625 6.7992 15.5104 6.67054 15.6531 6.54609C15.9979 6.2462 16.3548 5.93555 16.6711 5.59683C17.7022 4.49365 18.2089 3.10322 18.178 1.46436C18.1663 0.848204 17.7532 0.292871 17.1506 0.0832765C17.1034 0.066434 17.0571 0.0486559 17.0103 0.0308778C16.986 0.0215209 16.9616 0.012164 16.9373 0.00280707L16.9293 0H16.3979L16.389 0.00374276C16.3431 0.0229244 16.2963 0.0411704 16.2496 0.0589485C16.1452 0.0991832 16.0376 0.140354 15.9394 0.196963C15.4542 0.47767 15.195 0.917445 15.1473 1.54061C15.13 1.77173 15.0856 2.00565 15.043 2.23209C15.0261 2.32051 15.0093 2.40894 14.9943 2.49783C14.9808 2.57362 14.9499 2.61759 14.832 2.61759H14.8301C13.0256 2.61338 11.1959 2.61338 9.39189 2.61759C9.28849 2.61806 9.24639 2.58718 9.22674 2.49595C9.21083 2.42204 9.19024 2.34718 9.17059 2.27513C9.12802 2.11887 9.08404 1.957 9.08545 1.80167C9.09574 0.854753 8.68497 0.266204 7.82928 0.00187138L7.2936 0L7.28518 0.00327492C7.27161 0.00888906 7.25804 0.0145032 7.24447 0.0205852C7.2164 0.0322813 7.18974 0.0439775 7.1626 0.0519308C6.48657 0.251701 6.04679 0.8337 6.04211 1.53453C6.02854 3.41995 6.75604 5.00314 8.20356 6.24059C8.39444 6.40387 8.59093 6.55639 8.79912 6.71826C8.88193 6.78282 8.96615 6.84832 9.05176 6.91569C6.99558 8.25887 5.9972 9.92534 6.00001 12.0077C6.00328 14.0854 7.00213 15.7463 9.0527 17.0834C8.96849 17.1498 8.88521 17.2139 8.8038 17.2775C8.58953 17.4441 8.38695 17.6013 8.19093 17.7697C6.76587 18.9941 6.04258 20.5557 6.04164 22.4107C6.04071 23.2837 6.6868 23.9813 7.51302 23.9991C7.52471 23.9991 7.53594 23.9995 7.54764 23.9995C8.36777 23.9995 9.02182 23.3474 9.07562 22.4687C9.09434 22.1642 9.16077 21.8559 9.22486 21.5574L9.2389 21.4928C9.24592 21.4591 9.33434 21.3922 9.38206 21.3918C11.1945 21.3843 13.0322 21.3843 14.8442 21.3918C14.8872 21.3918 14.9766 21.4601 14.985 21.498L15.0028 21.5789C15.0654 21.8643 15.1305 22.1595 15.1464 22.451C15.1969 23.3469 15.8365 23.9986 16.6673 24H16.6692C17.494 24 18.1724 23.3165 18.1808 22.4758C18.2 20.5595 17.4524 18.9543 15.9595 17.7037ZM16.6837 1.02926C16.9766 1.03862 17.1567 1.27067 17.1534 1.63418C17.1431 3.10977 16.5911 4.34816 15.5122 5.31519C15.2722 5.5304 15.0056 5.72596 14.7478 5.91544C14.6056 6.01977 14.4587 6.12784 14.3174 6.23778C14.2355 6.30141 14.1751 6.30375 14.0774 6.24667C13.8505 6.1138 13.6231 5.98889 13.4027 5.86772C13.3461 5.83684 13.2904 5.80596 13.2357 5.77555C13.4027 5.64362 13.573 5.51356 13.7382 5.38771C14.1415 5.07987 14.5588 4.76126 14.9344 4.41272C15.7504 3.65668 16.1696 2.71163 16.1803 1.60377C16.1822 1.41757 16.2435 1.2571 16.3525 1.15277C16.4414 1.06762 16.556 1.02552 16.6837 1.02926ZM14.2556 3.65434C14.2261 3.68335 14.1976 3.71189 14.1695 3.73996C14.0605 3.84943 13.966 3.94394 13.857 4.01926C13.3199 4.38933 12.7711 4.74629 12.2092 5.10934C12.1671 5.13694 12.0825 5.14817 12.0507 5.13039C11.3437 4.73693 10.6027 4.30137 9.99353 3.6796C9.98652 3.67212 9.97903 3.6637 9.97155 3.65434H14.2556ZM8.69433 15.5325C8.2859 15.1746 7.90788 14.7554 7.61407 14.2506C6.69008 12.6613 6.72423 10.2028 8.57877 8.57841C8.89082 8.30519 9.23843 8.06051 9.57434 7.82331C9.68943 7.74191 9.80499 7.6605 9.91915 7.57816C9.94628 7.55851 9.99634 7.54541 10.0347 7.54541C10.0506 7.54541 10.0642 7.54775 10.0735 7.55243C10.321 7.68296 10.568 7.82331 10.8066 7.95899C10.8703 7.99548 10.9344 8.03197 10.998 8.06799C10.8581 8.16671 10.7192 8.26355 10.5811 8.35993C10.219 8.6121 9.87657 8.8507 9.54066 9.11129C9.00685 9.52533 8.60216 10.018 8.33783 10.5766C7.74507 11.829 7.91443 13.0454 8.83983 14.1926C9.36756 14.8466 10.03 15.3135 10.8628 15.8141C10.9058 15.8398 10.9493 15.8651 11.0027 15.8965L11.0293 15.9124C10.9592 15.9521 10.8895 15.9919 10.8207 16.0307C10.5498 16.1846 10.2939 16.3301 10.0347 16.4719C10.0244 16.4747 9.98511 16.4654 9.9547 16.4462C9.54066 16.187 9.10276 15.8904 8.69433 15.5325ZM12.8081 12.7918C12.3374 12.7923 11.8668 12.7923 11.3966 12.7918C10.7238 12.7904 10.0286 12.7895 9.34463 12.797C9.20755 12.8003 9.1589 12.761 9.1182 12.6225C8.99047 12.1958 8.99422 11.7766 9.12896 11.3415C9.16171 11.2344 9.20241 11.203 9.31001 11.203H9.31188C11.1702 11.2082 13.0551 11.2082 14.9134 11.203H14.9153C15.0322 11.203 15.065 11.2461 15.0945 11.3424C15.2283 11.7766 15.2315 12.1963 15.1047 12.6248C15.065 12.7591 15.0168 12.797 14.883 12.797H14.8769C14.1873 12.79 13.486 12.7909 12.8081 12.7918ZM14.3309 13.8286C14.3019 13.8557 14.2739 13.8828 14.2462 13.909C14.1349 14.0157 14.039 14.1079 13.929 14.1809C13.3513 14.5626 12.7683 14.9266 12.2041 15.2784C12.1634 15.3037 12.0932 15.3135 12.0539 15.2995C11.6039 15.1381 10.3781 14.2908 9.91119 13.8286H14.3309ZM14.2743 10.1789H9.88874C9.91821 10.1508 9.94675 10.1237 9.97482 10.0966C10.0806 9.99505 10.1718 9.90709 10.2747 9.83832C10.8628 9.44907 11.4612 9.07199 12.0207 8.72251C12.0619 8.69678 12.1466 8.6907 12.1831 8.71081C12.984 9.14825 13.697 9.55855 14.3094 10.1522C14.3164 10.1593 14.3234 10.1667 14.3319 10.1766C14.3099 10.178 14.2921 10.1789 14.2743 10.1789ZM8.87071 20.0444C8.33409 20.7377 8.05665 21.5162 8.04496 22.3574V22.3677C8.04449 22.4107 8.04402 22.4514 8.03888 22.4921C8.00285 22.7817 7.78998 22.9834 7.53267 22.9707C7.26693 22.9576 7.07278 22.7392 7.07044 22.451C7.06248 21.2785 7.37641 20.29 8.03045 19.4282C8.57737 18.7082 9.30674 18.0977 10.3257 17.5068C10.8572 17.198 11.4036 16.8953 11.9323 16.6024C12.4057 16.34 12.8956 16.0686 13.3728 15.7945C14.4685 15.1643 15.1188 14.6955 15.6334 13.8819C15.8369 13.56 16.0007 13.2087 16.12 12.8358C16.2701 12.2323 16.2627 11.6648 16.0961 11.1015C15.8383 10.2299 15.2938 9.50802 14.4778 8.9555C13.5917 8.35478 12.6425 7.81442 11.8055 7.33769C11.6516 7.2502 11.4972 7.16365 11.3428 7.07663C10.4637 6.58352 9.55516 6.07357 8.78322 5.3863C7.64401 4.37155 7.06716 3.09527 7.06903 1.59301C7.0695 1.26786 7.25664 1.04142 7.53501 1.02926C7.54202 1.02926 7.54904 1.02926 7.55559 1.02926C7.67676 1.02926 7.79092 1.07464 7.87841 1.15839C7.98086 1.25616 8.03794 1.39652 8.03888 1.55325C8.04683 2.89175 8.64941 4.01692 9.82932 4.89647C10.4024 5.32314 11.0289 5.69602 11.6347 6.05673C11.7685 6.13626 11.9023 6.21579 12.0352 6.29626C12.9812 6.86516 13.5183 7.15336 13.9103 7.36389C14.3361 7.59219 14.5499 7.70682 14.8849 7.96741C15.5534 8.48718 16.1855 8.97842 16.644 9.82148C17.2428 10.9223 17.2498 12.0592 17.1511 12.8148C17.0776 13.1371 16.9729 13.4534 16.839 13.7547C16.6323 14.2197 16.3296 14.6861 15.9637 15.103C15.5202 15.6083 15.0444 16.0167 13.8032 16.7269C13.3718 16.9739 12.9297 17.2205 12.5026 17.4586C11.8958 17.7968 11.2684 18.1468 10.6593 18.5047C10.2958 18.7185 9.96359 18.9543 9.66511 19.2116C9.36615 19.4689 9.10089 19.7473 8.87071 20.0448V20.0444ZM9.93505 20.3447C10.0258 20.2713 10.1161 20.1959 10.2041 20.123C10.424 19.94 10.6509 19.751 10.8871 19.5849C11.1837 19.3753 11.5042 19.1877 11.8144 19.0067C11.8738 18.9716 11.9337 18.937 11.9931 18.9019C12.0492 18.8687 12.1409 18.8537 12.1746 18.8719C12.8731 19.2589 13.6072 19.6907 14.2519 20.3447H9.93505ZM17.1291 22.2414C17.1352 22.305 17.1413 22.3682 17.1469 22.4318C17.1609 22.5768 17.1184 22.7125 17.0267 22.814C16.9364 22.9137 16.8068 22.9712 16.6711 22.9717H16.6692C16.5429 22.9717 16.4241 22.923 16.3352 22.8341C16.2383 22.7378 16.1845 22.6021 16.1845 22.4528C16.1813 21.0769 15.5637 19.9709 14.2411 18.9716C14.0011 18.7905 13.755 18.6259 13.494 18.4514C13.3948 18.3849 13.2942 18.3176 13.1931 18.2488L13.3625 18.1543C13.6338 18.0032 13.8902 17.8605 14.1522 17.7201C14.1742 17.7084 14.228 17.7122 14.2509 17.7267C15.247 18.3583 16.4484 19.2794 16.9036 20.8121C17.0393 21.2692 17.0851 21.7632 17.1291 22.2414Z" fill="#010D0A"/>
</svg>
