<svg width="20" height="18" viewBox="0 0 20 18" fill="none" xmlns="http://www.w3.org/2000/svg">
<path fill-rule="evenodd" clip-rule="evenodd" d="M7.76094 11.6172C7.56894 11.6172 7.37694 11.5442 7.23094 11.3972C6.49294 10.6602 6.08594 9.68019 6.08594 8.63819C6.08594 6.47819 7.84194 4.72119 9.99994 4.72119C11.0379 4.72119 12.0459 5.14019 12.7649 5.87119C13.0549 6.16719 13.0519 6.64119 12.7559 6.93119C12.4609 7.22319 11.9869 7.21819 11.6959 6.92419C11.2569 6.47719 10.6389 6.22119 9.99994 6.22119C8.66894 6.22119 7.58594 7.30519 7.58594 8.63819C7.58594 9.27919 7.83694 9.88319 8.29094 10.3372C8.58394 10.6302 8.58394 11.1042 8.29194 11.3972C8.14494 11.5442 7.95294 11.6172 7.76094 11.6172Z" fill="#010D0A"/>
<path fill-rule="evenodd" clip-rule="evenodd" d="M10.5676 12.4912C10.2126 12.4912 9.89657 12.2372 9.83057 11.8752C9.75657 11.4682 10.0266 11.0772 10.4346 11.0032C11.4146 10.8252 12.1906 10.0472 12.3666 9.06618C12.4406 8.65918 12.8306 8.39118 13.2376 8.46118C13.6456 8.53418 13.9166 8.92418 13.8436 9.33218C13.5566 10.9252 12.2946 12.1892 10.7026 12.4792C10.6576 12.4872 10.6116 12.4912 10.5676 12.4912Z" fill="#010D0A"/>
<mask id="mask0_132_8853" style="mask-type:luminance" maskUnits="userSpaceOnUse" x="0" y="0" width="17" height="15">
<path fill-rule="evenodd" clip-rule="evenodd" d="M0 0.62439H16.0862V14.7225H0V0.62439Z" fill="white"/>
</mask>
<g mask="url(#mask0_132_8853)">
<path fill-rule="evenodd" clip-rule="evenodd" d="M4.6545 14.7225C4.4925 14.7225 4.3295 14.6695 4.1915 14.5625C2.5005 13.2345 1.0715 11.2875 0.0615 8.93352C-0.0205 8.74352 -0.0205 8.52952 0.0615 8.34052C1.0825 5.97652 2.5205 4.01952 4.2205 2.68252C7.6865 -0.0604832 12.3005 -0.0694833 15.8015 2.70252C16.1265 2.95952 16.1815 3.43152 15.9245 3.75652C15.6665 4.07952 15.1965 4.13652 14.8705 3.87852C11.9045 1.53052 8.0835 1.53852 5.1495 3.86052C3.7135 4.99052 2.4805 6.63652 1.5705 8.63852C2.4715 10.6285 3.6935 12.2645 5.1185 13.3825C5.4445 13.6385 5.5005 14.1105 5.2445 14.4355C5.0965 14.6235 4.8765 14.7225 4.6545 14.7225Z" fill="#010D0A"/>
</g>
<mask id="mask1_132_8853" style="mask-type:luminance" maskUnits="userSpaceOnUse" x="6" y="4" width="14" height="13">
<path fill-rule="evenodd" clip-rule="evenodd" d="M6.71729 4.74121H19.9998V16.6894H6.71729V4.74121Z" fill="white"/>
</mask>
<g mask="url(#mask1_132_8853)">
<path fill-rule="evenodd" clip-rule="evenodd" d="M9.99992 16.6894C9.06292 16.6894 8.13092 16.5374 7.23092 16.2384C6.83792 16.1074 6.62492 15.6824 6.75592 15.2894C6.88692 14.8954 7.30992 14.6864 7.70492 14.8144C8.45192 15.0634 9.22392 15.1894 9.99992 15.1894C13.4279 15.1894 16.5609 12.7474 18.4299 8.63642C17.9739 7.63742 17.4429 6.73242 16.8489 5.94242C16.5999 5.61142 16.6659 5.14042 16.9969 4.89142C17.3269 4.64242 17.7979 4.71042 18.0469 5.04042C18.7709 6.00142 19.4069 7.11242 19.9379 8.33842C20.0209 8.52842 20.0209 8.74442 19.9379 8.93342C17.8419 13.7904 14.1269 16.6894 9.99992 16.6894Z" fill="#010D0A"/>
</g>
<mask id="mask2_132_8853" style="mask-type:luminance" maskUnits="userSpaceOnUse" x="1" y="0" width="18" height="18">
<path fill-rule="evenodd" clip-rule="evenodd" d="M1.36377 0.000366211H18.6373V17.2734H1.36377V0.000366211Z" fill="white"/>
</mask>
<g mask="url(#mask2_132_8853)">
<path fill-rule="evenodd" clip-rule="evenodd" d="M2.11352 17.2734C1.92152 17.2734 1.72952 17.2004 1.58352 17.0534C1.29052 16.7604 1.29052 16.2864 1.58352 15.9934L17.3575 0.219384C17.6505 -0.0736162 18.1245 -0.0736162 18.4175 0.219384C18.7105 0.512384 18.7105 0.987384 18.4175 1.28038L2.64352 17.0534C2.49752 17.2004 2.30552 17.2734 2.11352 17.2734Z" fill="#010D0A"/>
</g>
</svg>
