<svg width="24" height="24" viewBox="0 0 24 24" fill="none" xmlns="http://www.w3.org/2000/svg">
<path d="M20.7382 16.4394C19.9374 15.731 19.3522 14.9456 18.9595 14.0755C18.4282 12.8897 18.3743 11.6269 18.382 10.7029C18.382 10.2486 18.4205 10.0869 18.4051 9.53253C18.4051 9.27073 18.3666 8.23123 18.1125 7.24563C17.4734 4.71233 15.6947 3.32633 15.6947 3.32633C14.0161 2.03273 12.1835 1.98653 11.5367 2.00193C9.60396 2.04813 8.21026 2.92593 7.49416 3.49573C7.33246 3.61893 5.75396 4.88943 5.15336 6.99923C4.80686 8.21583 4.93006 8.20043 4.90696 11.1033C4.89156 13.1361 4.23706 14.8686 2.71246 16.2392C2.11186 16.7782 1.81156 17.4173 2.12726 18.2104C2.45066 19.0343 3.10516 19.3346 3.95986 19.3192C5.22266 19.2961 6.04656 19.3192 7.42486 19.3346C7.68666 19.3346 7.89456 19.3346 8.02546 19.3423C8.05626 19.427 8.09476 19.5425 8.15636 19.6888C8.17176 19.7273 8.38736 20.2817 8.69536 20.6898C9.23436 21.4059 9.98896 21.8679 10.8745 22.199C11.0593 22.2529 11.3288 22.3068 11.6445 22.3068C11.9602 22.3068 12.2297 22.2529 12.4145 22.199C12.8226 22.0681 13.8852 21.66 14.6321 20.5897C14.8862 20.2278 15.0787 19.8043 15.2019 19.3115C16.688 19.3115 18.0971 19.3192 19.5062 19.3115C20.2454 19.3115 20.7921 18.9727 21.1001 18.2874C21.4158 17.579 21.2772 16.9168 20.7305 16.4394H20.7382ZM11.8062 20.7206C10.8283 20.7899 10.1045 20.3818 9.64246 19.35H13.5772C13.2923 20.2817 12.6455 20.659 11.8062 20.7206ZM3.50556 17.7176C3.47476 17.6791 3.46706 17.6098 3.50556 17.5636C3.65186 17.4173 3.87516 17.2017 4.12156 16.9168C4.62976 16.3393 5.59226 15.2228 6.03886 13.6212C6.20056 13.0514 6.29296 12.4585 6.30836 11.8271C6.33146 10.8338 6.30836 9.84053 6.33146 8.84723C6.40846 5.76723 8.50286 3.60353 11.5752 3.44953H11.6599C11.9063 3.43413 12.2528 3.43413 12.6609 3.49573C13.9776 3.69593 14.8477 4.41973 15.0787 4.61993C16.5571 5.88273 16.8112 7.69223 16.919 8.49303C17.0422 9.40163 16.8574 9.24763 16.9267 10.7029C17.0114 12.4893 17.0807 13.8368 17.8507 15.0919C18.151 15.5847 18.7824 16.4163 19.3214 17.0708C19.4985 17.2864 19.6525 17.4635 19.7526 17.579C19.7603 17.579 19.8219 17.6406 19.8142 17.6868C19.7988 17.7407 19.7064 17.7792 19.5832 17.7561H3.62106C3.57486 17.7638 3.52866 17.7484 3.49786 17.7099L3.50556 17.7176Z" fill="#010D0A"/>
</svg>
