<svg width="15" height="11" viewBox="0 0 15 11" fill="none" xmlns="http://www.w3.org/2000/svg">
<path fill-rule="evenodd" clip-rule="evenodd" d="M14.7728 1.32448C15.0757 1.02149 15.0757 0.530239 14.7728 0.227245C14.4698 -0.0757484 13.9785 -0.0757484 13.6755 0.227245L5.45689 8.4459L1.32448 4.31348C1.02149 4.01048 0.530238 4.01048 0.227245 4.31348C-0.0757483 4.61647 -0.0757483 5.10772 0.227245 5.41071L4.80026 9.98374C4.82821 10.0256 4.86067 10.0654 4.89764 10.1024C5.15426 10.359 5.54591 10.3983 5.84386 10.2202C5.9027 10.1866 5.95809 10.1448 6.0083 10.0945C6.0271 10.0757 6.04473 10.0562 6.0612 10.0361L14.7728 1.32448Z" fill="#010D0A"/>
</svg>
