<svg width="24" height="24" viewBox="0 0 24 24" fill="none" xmlns="http://www.w3.org/2000/svg">
<path d="M22.1767 11.65C22.0101 11.425 21.7659 11.3112 21.451 11.3112H21.4264C21.2633 11.3141 21.0869 11.3156 20.8695 11.3156C20.7423 11.3156 20.6148 11.3152 20.4858 11.3149C20.476 11.3145 20.4662 11.3145 20.4565 11.3145C20.3771 10.4435 20.1757 9.61449 19.8554 8.84565C19.5362 8.07899 19.0912 7.35181 18.5296 6.68007C18.5412 6.6692 18.5525 6.65797 18.5637 6.64674C18.8177 6.39746 19.0575 6.16159 19.301 5.91775C19.5836 5.63442 19.5999 5.22645 19.3398 4.94783C19.2079 4.80761 19.0351 4.73116 18.8514 4.73116C18.6677 4.73116 18.4865 4.80906 18.3405 4.95072C18.1315 5.15471 17.9086 5.3779 17.6579 5.63261C17.6286 5.66268 17.5992 5.69312 17.5709 5.72319C16.8956 5.16159 16.1688 4.71667 15.4046 4.39855C14.6373 4.07862 13.8101 3.87754 12.9409 3.79855V3.7779C12.9398 3.45072 12.9391 3.1413 12.9441 2.82899C12.9467 2.68297 12.9271 2.55688 12.8847 2.44457C12.8293 2.29746 12.7351 2.17428 12.605 2.07826L12.4996 2H12.0112L11.9057 2.07826C11.5583 2.33514 11.5648 2.70688 11.5666 2.82899C11.5724 3.14022 11.5713 3.45833 11.5702 3.76558C11.5699 3.77283 11.5699 3.78043 11.5699 3.78768C10.6771 3.89348 9.82131 4.12246 9.02095 4.47101C8.69233 4.61413 7.85465 5.01377 6.94414 5.72464C6.91914 5.69891 6.89414 5.67355 6.86914 5.64783L6.77168 5.54964C6.57276 5.34891 6.36697 5.1413 6.15899 4.94022C6.01878 4.80471 5.84233 4.73007 5.66262 4.73007C5.48291 4.73007 5.30899 4.80471 5.1782 4.94022C4.92566 5.20217 4.92494 5.59891 5.17639 5.88406C5.21443 5.92717 5.25247 5.96413 5.28581 5.99674C5.29885 6.00942 5.31153 6.02174 5.32421 6.03478H5.32494L5.32566 6.03587C5.54015 6.25036 5.75465 6.46485 5.97312 6.68297C5.41407 7.34964 4.97023 8.07536 4.65139 8.84493C4.33399 9.61196 4.13291 10.4413 4.05247 11.3145C4.04305 11.3145 4.03399 11.3145 4.02457 11.3149C3.89559 11.3152 3.76805 11.3156 3.64088 11.3156C3.42385 11.3156 3.24704 11.3141 3.08508 11.3112H3.05936C2.7445 11.3112 2.49994 11.4254 2.33363 11.6504L2.25537 11.7558V12.2442L2.33363 12.3496C2.49994 12.5746 2.74414 12.6884 3.05936 12.6884H3.08436C3.24341 12.6855 3.41515 12.6844 3.62602 12.6844C3.75537 12.6844 3.88581 12.6844 4.01697 12.6851C4.02928 12.6851 4.04124 12.6855 4.05356 12.6855C4.13291 13.5565 4.33436 14.3851 4.65428 15.154C4.97312 15.9203 5.41733 16.6457 5.97711 17.3149C5.97168 17.3203 5.96588 17.3257 5.96044 17.3315C5.69668 17.5935 5.4474 17.8409 5.19523 18.0975C4.92276 18.3736 4.91226 18.7754 5.17059 19.0522C5.30283 19.1928 5.47711 19.2696 5.66262 19.2696C5.84812 19.2696 6.01588 19.1967 6.15392 19.0641C6.36008 18.867 6.56515 18.6627 6.76298 18.4562C6.82168 18.3949 6.87892 18.3322 6.93436 18.2699C7.61117 18.8341 8.33979 19.2804 9.10465 19.5993C9.87131 19.9188 10.6988 20.121 11.5699 20.2014C11.5699 20.2112 11.5699 20.2207 11.5702 20.2304C11.5713 20.5547 11.5724 20.8609 11.5666 21.1703C11.5612 21.4982 11.6753 21.7507 11.9054 21.9217L12.0112 22H12.5003L12.6065 21.921C12.8358 21.7496 12.9492 21.4975 12.9438 21.171C12.9383 20.8638 12.9394 20.5598 12.9405 20.2384C12.9405 20.2261 12.9405 20.2138 12.9405 20.2014C13.8108 20.1228 14.6398 19.921 15.4094 19.6007C16.1749 19.2815 16.901 18.837 17.5724 18.2764C17.588 18.2924 17.6039 18.3083 17.6199 18.3243C17.8655 18.5728 18.0974 18.8076 18.3373 19.0457C18.4829 19.1902 18.6644 19.2696 18.8492 19.2696C19.0166 19.2696 19.1793 19.204 19.3068 19.0848C19.442 18.958 19.5181 18.7917 19.5231 18.6156C19.5286 18.4275 19.4525 18.2406 19.3086 18.0888C19.1862 17.9601 19.0604 17.8366 18.9391 17.717L18.8887 17.6674C18.7695 17.5504 18.6488 17.4326 18.53 17.3174C19.0927 16.6428 19.538 15.9145 19.8568 15.1478C20.1757 14.3815 20.3767 13.5547 20.4561 12.6855C20.4659 12.6855 20.4757 12.6855 20.4854 12.6851C20.6144 12.6848 20.742 12.6844 20.8691 12.6844C21.0862 12.6844 21.263 12.6859 21.4249 12.6888H21.4499C21.7641 12.6888 22.0079 12.5754 22.1757 12.3514L22.255 12.2453V11.7558L22.1764 11.65H22.1767ZM19.1503 13.5232C18.826 14.9891 18.0557 16.2935 16.9228 17.296C15.7891 18.2993 14.405 18.8993 12.9209 19.0312C12.6945 19.0514 12.467 19.0616 12.2449 19.0616C10.8717 19.0616 9.5695 18.6703 8.3753 17.8982C5.97276 16.3457 4.72711 13.3207 5.34595 10.5417C5.55936 9.5837 5.92928 8.72029 6.44595 7.975C6.73689 7.55543 7.24704 6.93297 8.0253 6.35072C8.60646 5.9163 9.26552 5.56341 9.93182 5.32935C10.5485 5.11304 11.192 4.98406 11.8449 4.94638C11.9775 4.93877 12.1123 4.93478 12.2456 4.93478C12.7144 4.93478 13.1931 4.98333 13.6681 5.07971C15.5293 5.45652 17.1282 6.54601 18.1695 8.14674C19.2133 9.75181 19.5619 11.6612 19.1503 13.5232Z" fill="#010D0A"/>
<path d="M12.6974 13.1699H12.6778C12.5506 13.1678 12.4195 13.1659 12.2887 13.1659C12.1952 13.1659 12.1097 13.1667 12.0292 13.1688C11.9463 12.9913 11.8586 12.8167 11.7734 12.6467C11.7336 12.5678 11.6937 12.4884 11.6546 12.4091C11.6401 12.3797 11.6249 12.3493 11.6119 12.3217C11.6314 12.3 11.6539 12.2757 11.6753 12.2529C11.7731 12.1475 11.8713 12.0424 11.9695 11.9373C12.1524 11.742 12.3412 11.5399 12.5256 11.3388C12.8314 11.0047 12.8358 10.5511 12.5358 10.2601C12.3916 10.1199 12.2173 10.046 12.0325 10.046C11.8861 10.046 11.6644 10.0946 11.4387 10.3261C11.3948 10.371 11.3542 10.4156 11.3148 10.4591C11.2926 10.483 11.2705 10.5073 11.2481 10.5315C11.055 10.738 10.8619 10.9442 10.6905 11.1275L10.539 11.0779L10.0948 10.9333C10.0633 10.8007 10.0285 10.6547 9.98975 10.5087C9.89084 10.1377 9.60461 9.89819 9.2604 9.89819C9.20026 9.89819 9.13939 9.9058 9.07997 9.92102C8.66946 10.0246 8.45098 10.4091 8.54845 10.8554C8.58685 11.0315 8.62779 11.2069 8.66221 11.3536C8.6441 11.3739 8.62598 11.3942 8.60823 11.4141C8.46185 11.5775 8.33323 11.721 8.20352 11.8594C7.73287 11.8232 7.26258 11.779 6.85497 11.7399C6.81403 11.7359 6.77345 11.7341 6.73432 11.7341C6.29808 11.7341 5.99047 11.9931 5.95098 12.3938C5.92816 12.6236 5.99881 12.833 6.14989 12.9833C6.28395 13.1167 6.47018 13.1964 6.70352 13.2199C6.76584 13.2265 6.82816 13.233 6.89047 13.2395C7.21185 13.2728 7.5441 13.3073 7.87852 13.3203C8.03576 13.3265 8.06837 13.3449 8.07345 13.3489C8.07345 13.3489 8.09047 13.3656 8.10895 13.4286C8.16221 13.6098 8.24011 13.7746 8.32236 13.9326C8.30207 13.9395 8.28142 13.9464 8.2604 13.9533C8.20497 13.9714 8.14772 13.9902 8.09011 14.0101C7.74518 14.1304 7.54917 14.3953 7.55171 14.737C7.55461 15.1507 7.87417 15.4627 8.29519 15.4627C8.38214 15.4627 8.46982 15.4489 8.55642 15.4221C8.71692 15.3725 8.87598 15.3178 9.03069 15.2638C9.24917 15.5544 9.53939 15.7529 9.89772 15.8569C9.89881 15.8728 9.8999 15.8884 9.90098 15.9044C9.92091 16.1772 9.93975 16.4352 9.96076 16.6993C10.0028 17.2323 10.3648 17.471 10.7046 17.471C10.7296 17.471 10.755 17.4699 10.7803 17.4674C11.2115 17.4275 11.4778 17.0772 11.4434 16.596C11.4372 16.5087 11.4311 16.4214 11.4253 16.3341C11.4086 16.0913 11.3916 15.8413 11.368 15.592C11.7811 15.3862 12.0648 15.0725 12.2144 14.6562C12.2742 14.6565 12.3332 14.6565 12.3919 14.6565C12.5108 14.6565 12.6082 14.6558 12.6995 14.6544C12.9499 14.6496 13.1597 14.5656 13.3064 14.4105C13.4369 14.2725 13.5046 14.0866 13.497 13.8873C13.4814 13.4717 13.1528 13.1768 12.6974 13.1699ZM10.8883 14.6112C10.7821 14.6681 10.6749 14.7243 10.5644 14.7717C10.4753 14.8101 10.3879 14.8294 10.3057 14.8294C10.1169 14.8294 9.95424 14.7286 9.85279 14.5312C9.58395 14.0083 9.32816 13.4786 9.07163 12.95C9.03649 12.8772 9.02671 12.7924 9.01656 12.7536C9.0249 12.4504 9.17671 12.3022 9.397 12.196C9.572 12.112 9.7441 12.0083 9.92562 12.0083C10.0198 12.0083 10.1169 12.0362 10.2176 12.1098C10.293 12.1645 10.3564 12.25 10.3995 12.3344C10.6517 12.8319 10.8999 13.3312 11.1426 13.8333C11.3042 14.167 11.2119 14.4384 10.8883 14.6112Z" fill="#010D0A"/>
<path d="M18.1122 13.4811C18.0593 13.1409 17.8966 12.8123 17.6278 12.5018C17.7712 12.1076 17.8086 11.7384 17.7394 11.4018C17.651 10.9721 17.3886 10.6145 16.9803 10.367C16.7147 10.2061 16.4118 10.1213 16.1042 10.1213C15.5821 10.1213 15.097 10.359 14.7727 10.7735C14.4814 11.1463 14.3622 11.5695 14.4285 11.9978C14.4807 12.3333 14.6426 12.6637 14.9115 12.9826C14.7662 13.3731 14.7281 13.7424 14.7984 14.0829C14.8879 14.5159 15.1513 14.8757 15.56 15.1235C15.8245 15.284 16.1267 15.3684 16.4343 15.3684C16.9571 15.3684 17.4434 15.1308 17.768 14.7159C18.0607 14.342 18.1799 13.9152 18.1122 13.4811ZM15.5093 11.7924C15.5169 11.4677 15.7821 11.2083 16.1064 11.2083H16.1068C16.4386 11.2087 16.7057 11.4818 16.7024 11.8177C16.6995 12.1449 16.4285 12.4148 16.1071 12.4148C16.1024 12.4148 16.0973 12.4148 16.0926 12.4145C15.7589 12.4061 15.5013 12.1315 15.5093 11.7924ZM16.4347 14.2811H16.4314C16.1028 14.2797 15.8321 14.001 15.8357 13.6688C15.8394 13.3478 16.1039 13.0815 16.427 13.0739C16.4314 13.0735 16.4361 13.0735 16.4405 13.0735C16.7615 13.0735 17.0318 13.3463 17.0328 13.6753C17.0343 14.0087 16.7647 14.2811 16.4347 14.2811Z" fill="#010D0A"/>
<path d="M13.8457 6.41524C13.5023 6.06814 13.0486 5.87683 12.5686 5.87683C11.5816 5.87683 10.7736 6.67937 10.7671 7.66596C10.7642 8.15219 10.949 8.60799 11.2878 8.94929C11.6262 9.29024 12.0798 9.47864 12.5649 9.47937H12.5678C13.5526 9.47937 14.3617 8.68009 14.3715 7.69821C14.3765 7.21814 14.1896 6.7627 13.8457 6.41524ZM12.5704 8.39422H12.5682C12.1751 8.39422 11.8468 8.06451 11.8512 7.67393C11.8555 7.28951 12.1762 6.97357 12.5639 6.97176H12.5675C12.9526 6.97176 13.2729 7.28299 13.2827 7.66777C13.2925 8.05835 12.9646 8.39277 12.5704 8.39422Z" fill="#010D0A"/>
</svg>
