<svg width="18" height="16" viewBox="0 0 18 16" fill="none" xmlns="http://www.w3.org/2000/svg">
<path d="M7.94981 15.5196C8.0931 15.6548 8.28278 15.73 8.47981 15.7296C8.6761 15.7313 8.86434 15.6516 8.99981 15.5096C9.14276 15.3703 9.22338 15.1792 9.22338 14.9796C9.22338 14.78 9.14276 14.5889 8.99981 14.4496L3.29975 8.74951H16.52C16.9342 8.74951 17.27 8.41372 17.27 7.99951C17.27 7.5853 16.9342 7.24951 16.52 7.24951H3.29756L9.00981 1.51957C9.15276 1.38029 9.23338 1.18916 9.23338 0.989574C9.23338 0.789987 9.15276 0.598862 9.00981 0.459574C8.71699 0.167121 8.24263 0.167121 7.94981 0.459574L0.949809 7.45957C0.657355 7.75239 0.657355 8.22676 0.949809 8.51957L7.94981 15.5196Z" fill="#010D0A"/>
</svg>
